<svg xmlns="http://www.w3.org/2000/svg" xmlns:xlink="http://www.w3.org/1999/xlink" width="500" zoomAndPan="magnify" viewBox="0 0 375 374.999991" height="500" preserveAspectRatio="xMidYMid meet" version="1.2"><defs/><g id="ae63f6e084"><rect x="0" width="375" y="0" height="374.999991" style="fill:#ffffff;fill-opacity:1;stroke:none;"/><rect x="0" width="375" y="0" height="374.999991" style="fill:#ede1d8;fill-opacity:1;stroke:none;"/><g style="fill:#cb102c;fill-opacity:1;"><g transform="translate(49.423636, 221.050672)"><path style="stroke:none" d="M 0 -53.796875 C 0 -58.453125 1.070312 -62.273438 3.21875 -65.265625 C 5.375 -68.253906 8.128906 -70.566406 11.484375 -72.203125 C 14.835938 -73.847656 18.367188 -74.976562 22.078125 -75.59375 C 25.796875 -76.21875 29.222656 -76.53125 32.359375 -76.53125 C 34.253906 -76.53125 36.601562 -76.4375 39.40625 -76.25 C 42.21875 -76.070312 45.132812 -75.671875 48.15625 -75.046875 C 51.1875 -74.429688 54.03125 -73.519531 56.6875 -72.3125 C 59.34375 -71.113281 61.488281 -69.492188 63.125 -67.453125 C 64.769531 -65.410156 65.59375 -62.894531 65.59375 -59.90625 C 65.59375 -57.570312 65.046875 -55.660156 63.953125 -54.171875 C 62.859375 -52.679688 61.472656 -51.585938 59.796875 -50.890625 C 58.117188 -50.203125 56.40625 -49.820312 54.65625 -49.75 C 53.28125 -49.75 51.734375 -49.945312 50.015625 -50.34375 C 48.304688 -50.75 46.703125 -51.425781 45.203125 -52.375 C 43.710938 -53.320312 42.566406 -54.519531 41.765625 -55.96875 C 43.660156 -56.695312 44.953125 -57.828125 45.640625 -59.359375 C 46.335938 -60.890625 46.722656 -62.457031 46.796875 -64.0625 C 46.867188 -65.738281 46.285156 -67.394531 45.046875 -69.03125 C 43.804688 -70.675781 42.054688 -72.023438 39.796875 -73.078125 C 37.535156 -74.140625 34.910156 -74.671875 31.921875 -74.671875 C 28.640625 -74.671875 25.722656 -74.03125 23.171875 -72.75 C 20.617188 -71.476562 18.648438 -69.835938 17.265625 -67.828125 C 15.890625 -65.828125 15.253906 -63.675781 15.359375 -61.375 C 15.472656 -59.082031 16.53125 -56.914062 18.53125 -54.875 C 20.53125 -52.84375 23.644531 -51.171875 27.875 -49.859375 C 30.789062 -48.910156 33.960938 -47.960938 37.390625 -47.015625 C 40.816406 -46.066406 44.1875 -44.972656 47.5 -43.734375 C 50.820312 -42.492188 53.847656 -40.941406 56.578125 -39.078125 C 59.304688 -37.222656 61.488281 -34.960938 63.125 -32.296875 C 64.769531 -29.640625 65.59375 -26.414062 65.59375 -22.625 C 65.59375 -17.96875 64.515625 -14.160156 62.359375 -11.203125 C 60.210938 -8.253906 57.445312 -5.957031 54.0625 -4.3125 C 50.675781 -2.675781 47.125 -1.546875 43.40625 -0.921875 C 39.6875 -0.304688 36.296875 0 33.234375 0 C 31.335938 0 28.984375 -0.0859375 26.171875 -0.265625 C 23.367188 -0.453125 20.457031 -0.851562 17.4375 -1.46875 C 14.414062 -2.09375 11.570312 -3.003906 8.90625 -4.203125 C 6.25 -5.410156 4.097656 -7.015625 2.453125 -9.015625 C 0.816406 -11.023438 0 -13.523438 0 -16.515625 C 0 -20.078125 1.144531 -22.660156 3.4375 -24.265625 C 5.738281 -25.867188 8.238281 -26.707031 10.9375 -26.78125 C 12.320312 -26.851562 13.867188 -26.671875 15.578125 -26.234375 C 17.296875 -25.796875 18.914062 -25.117188 20.4375 -24.203125 C 21.96875 -23.296875 23.097656 -22.078125 23.828125 -20.546875 C 22.003906 -19.816406 20.726562 -18.671875 20 -17.109375 C 19.269531 -15.546875 18.867188 -13.960938 18.796875 -12.359375 C 18.796875 -10.679688 19.394531 -9.019531 20.59375 -7.375 C 21.800781 -5.738281 23.535156 -4.390625 25.796875 -3.328125 C 28.054688 -2.273438 30.679688 -1.75 33.671875 -1.75 C 36.953125 -1.75 39.867188 -2.382812 42.421875 -3.65625 C 44.972656 -4.9375 46.941406 -6.578125 48.328125 -8.578125 C 49.710938 -10.585938 50.347656 -12.738281 50.234375 -15.03125 C 50.128906 -17.320312 49.070312 -19.503906 47.0625 -21.578125 C 45.0625 -23.660156 41.910156 -25.359375 37.609375 -26.671875 C 34.691406 -27.617188 31.535156 -28.546875 28.140625 -29.453125 C 24.753906 -30.367188 21.40625 -31.460938 18.09375 -32.734375 C 14.78125 -34.015625 11.753906 -35.566406 9.015625 -37.390625 C 6.285156 -39.210938 4.097656 -41.453125 2.453125 -44.109375 C 0.816406 -46.773438 0 -50.003906 0 -53.796875 Z M 0 -53.796875 "/></g></g><g style="fill:#cb102c;fill-opacity:1;"><g transform="translate(114.363918, 221.050672)"><path style="stroke:none" d="M 27.328125 -54.65625 C 32.359375 -54.65625 36.953125 -53.4375 41.109375 -51 C 45.265625 -48.5625 48.5625 -45.265625 51 -41.109375 C 53.4375 -36.953125 54.65625 -32.359375 54.65625 -27.328125 C 54.65625 -22.296875 53.4375 -17.722656 51 -13.609375 C 48.5625 -9.492188 45.265625 -6.195312 41.109375 -3.71875 C 36.953125 -1.238281 32.359375 0 27.328125 0 C 22.296875 0 17.722656 -1.238281 13.609375 -3.71875 C 9.492188 -6.195312 6.195312 -9.492188 3.71875 -13.609375 C 1.238281 -17.722656 0 -22.296875 0 -27.328125 C 0 -32.359375 1.238281 -36.953125 3.71875 -41.109375 C 6.195312 -45.265625 9.492188 -48.5625 13.609375 -51 C 17.722656 -53.4375 22.296875 -54.65625 27.328125 -54.65625 Z M 27.328125 -52.8125 C 25.359375 -52.8125 23.535156 -51.660156 21.859375 -49.359375 C 20.179688 -47.066406 18.851562 -44.003906 17.875 -40.171875 C 16.894531 -36.347656 16.40625 -32.066406 16.40625 -27.328125 C 16.40625 -22.660156 16.894531 -18.394531 17.875 -14.53125 C 18.851562 -10.675781 20.179688 -7.597656 21.859375 -5.296875 C 23.535156 -3.003906 25.359375 -1.859375 27.328125 -1.859375 C 29.367188 -1.859375 31.207031 -3.003906 32.84375 -5.296875 C 34.488281 -7.597656 35.800781 -10.675781 36.78125 -14.53125 C 37.769531 -18.394531 38.265625 -22.660156 38.265625 -27.328125 C 38.265625 -32.066406 37.769531 -36.347656 36.78125 -40.171875 C 35.800781 -44.003906 34.488281 -47.066406 32.84375 -49.359375 C 31.207031 -51.660156 29.367188 -52.8125 27.328125 -52.8125 Z M 27.328125 -52.8125 "/></g></g><g style="fill:#cb102c;fill-opacity:1;"><g transform="translate(166.184855, 221.050672)"><path style="stroke:none" d="M 65.484375 -53.359375 C 65.484375 -50.148438 64.804688 -47.429688 63.453125 -45.203125 C 62.109375 -42.984375 60.378906 -41.289062 58.265625 -40.125 C 56.148438 -38.957031 53.859375 -38.335938 51.390625 -38.265625 C 47.960938 -38.117188 45.117188 -38.972656 42.859375 -40.828125 C 40.597656 -42.691406 39.25 -45.410156 38.8125 -48.984375 C 42.238281 -48.910156 44.878906 -50.09375 46.734375 -52.53125 C 48.597656 -54.96875 49.492188 -57.828125 49.421875 -61.109375 C 49.347656 -64.460938 48.691406 -67.175781 47.453125 -69.25 C 46.210938 -71.332031 44.585938 -72.8125 42.578125 -73.6875 C 40.578125 -74.5625 38.445312 -74.867188 36.1875 -74.609375 C 33.925781 -74.359375 31.773438 -73.578125 29.734375 -72.265625 C 26.160156 -69.929688 23.460938 -66.503906 21.640625 -61.984375 C 19.816406 -57.460938 18.722656 -52.65625 18.359375 -47.5625 C 18.148438 -41.507812 18.972656 -35.894531 20.828125 -30.71875 C 22.679688 -25.539062 25.519531 -21.367188 29.34375 -18.203125 C 33.175781 -15.035156 37.828125 -13.378906 43.296875 -13.234375 C 47.160156 -13.160156 50.984375 -13.976562 54.765625 -15.6875 C 58.554688 -17.394531 61.726562 -20 64.28125 -23.5 L 65.484375 -22.40625 C 63.878906 -17.601562 61.4375 -13.523438 58.15625 -10.171875 C 54.882812 -6.816406 51.171875 -4.28125 47.015625 -2.5625 C 42.859375 -0.851562 38.554688 0 34.109375 0 C 29.441406 0 25.050781 -0.925781 20.9375 -2.78125 C 16.820312 -4.644531 13.195312 -7.289062 10.0625 -10.71875 C 6.925781 -14.144531 4.460938 -18.1875 2.671875 -22.84375 C 0.890625 -27.507812 0 -32.648438 0 -38.265625 C 0 -44.097656 0.984375 -49.363281 2.953125 -54.0625 C 4.921875 -58.757812 7.597656 -62.785156 10.984375 -66.140625 C 14.378906 -69.492188 18.257812 -72.0625 22.625 -73.84375 C 27 -75.632812 31.59375 -76.53125 36.40625 -76.53125 C 39.25 -76.53125 42.347656 -76.164062 45.703125 -75.4375 C 49.054688 -74.707031 52.222656 -73.46875 55.203125 -71.71875 C 58.191406 -69.96875 60.648438 -67.597656 62.578125 -64.609375 C 64.515625 -61.617188 65.484375 -57.867188 65.484375 -53.359375 Z M 65.484375 -53.359375 "/></g></g><g style="fill:#cb102c;fill-opacity:1;"><g transform="translate(231.125137, 221.050672)"><path style="stroke:none" d="M 43.84375 0 C 42.382812 0 41.085938 -0.472656 39.953125 -1.421875 C 38.828125 -2.367188 38.265625 -4.191406 38.265625 -6.890625 L 38.265625 -9.515625 C 35.710938 -6.453125 32.578125 -4.097656 28.859375 -2.453125 C 25.140625 -0.816406 21.242188 0 17.171875 0 C 11.554688 0 7.289062 -1.421875 4.375 -4.265625 C 1.457031 -7.109375 0 -10.425781 0 -14.21875 C 0 -17.5625 0.800781 -20.398438 2.40625 -22.734375 C 4.007812 -25.066406 6.066406 -27.085938 8.578125 -28.796875 C 11.097656 -30.515625 13.796875 -32.066406 16.671875 -33.453125 C 19.546875 -34.835938 22.3125 -36.238281 24.96875 -37.65625 C 27.632812 -39.082031 29.878906 -40.707031 31.703125 -42.53125 C 33.742188 -44.570312 34.65625 -46.394531 34.4375 -48 C 34.21875 -49.601562 33.285156 -50.84375 31.640625 -51.71875 C 30.003906 -52.59375 28.054688 -52.957031 25.796875 -52.8125 C 22.078125 -52.664062 19.414062 -51.753906 17.8125 -50.078125 C 16.21875 -48.398438 15.617188 -46.59375 16.015625 -44.65625 C 16.421875 -42.726562 17.710938 -41.179688 19.890625 -40.015625 C 18.941406 -38.410156 17.359375 -37.242188 15.140625 -36.515625 C 12.921875 -35.785156 10.9375 -35.457031 9.1875 -35.53125 C 6.925781 -35.601562 4.828125 -36.222656 2.890625 -37.390625 C 0.960938 -38.554688 0 -40.378906 0 -42.859375 C 0 -44.972656 0.691406 -46.757812 2.078125 -48.21875 C 3.460938 -49.675781 5.25 -50.820312 7.4375 -51.65625 C 9.625 -52.5 11.988281 -53.140625 14.53125 -53.578125 C 17.082031 -54.015625 19.503906 -54.300781 21.796875 -54.4375 C 24.097656 -54.582031 26.050781 -54.65625 27.65625 -54.65625 C 30.207031 -54.65625 33.03125 -54.4375 36.125 -54 C 39.226562 -53.570312 42.179688 -52.773438 44.984375 -51.609375 C 47.796875 -50.441406 50.109375 -48.800781 51.921875 -46.6875 C 53.742188 -44.570312 54.65625 -41.835938 54.65625 -38.484375 L 54.65625 -8.75 C 54.65625 -5.976562 55.21875 -4.132812 56.34375 -3.21875 C 57.476562 -2.3125 58.773438 -1.859375 60.234375 -1.859375 L 60.234375 0 Z M 36.078125 -46.90625 C 36.078125 -44.863281 35.328125 -42.894531 33.828125 -41 C 32.335938 -39.101562 30.863281 -37.460938 29.40625 -36.078125 C 27.144531 -34.035156 25.046875 -32.117188 23.109375 -30.328125 C 21.179688 -28.546875 19.617188 -26.5625 18.421875 -24.375 C 17.222656 -22.1875 16.585938 -19.457031 16.515625 -16.1875 C 16.441406 -12.757812 17.3125 -9.988281 19.125 -7.875 C 20.945312 -5.757812 23.207031 -4.703125 25.90625 -4.703125 C 28.53125 -4.703125 30.769531 -5.359375 32.625 -6.671875 C 34.488281 -7.984375 35.894531 -9.710938 36.84375 -11.859375 C 37.789062 -14.015625 38.265625 -16.289062 38.265625 -18.6875 L 38.265625 -36.078125 C 38.265625 -40.816406 37.535156 -44.425781 36.078125 -46.90625 Z M 36.078125 -46.90625 "/></g></g><g style="fill:#cb102c;fill-opacity:1;"><g transform="translate(288.740463, 221.050672)"><path style="stroke:none" d="M 0 0 L 0 -1.859375 C 1.457031 -1.859375 2.734375 -2.3125 3.828125 -3.21875 C 4.921875 -4.132812 5.46875 -5.976562 5.46875 -8.75 L 5.46875 -67.78125 C 5.46875 -70.550781 4.921875 -72.390625 3.828125 -73.296875 C 2.734375 -74.210938 1.457031 -74.671875 0 -74.671875 L 0 -76.53125 C 3.644531 -76.675781 7.472656 -77.273438 11.484375 -78.328125 C 15.492188 -79.390625 18.953125 -80.503906 21.859375 -81.671875 L 21.859375 -8.75 C 21.859375 -5.976562 22.421875 -4.132812 23.546875 -3.21875 C 24.679688 -2.3125 25.976562 -1.859375 27.4375 -1.859375 L 27.4375 0 Z M 0 0 "/></g></g><g style="fill:#cb102c;fill-opacity:1;"><g transform="translate(213.53646, 266.057166)"><path style="stroke:none" d="M 0 -31.53125 C 0 -34.269531 0.628906 -36.515625 1.890625 -38.265625 C 3.148438 -40.015625 4.757812 -41.367188 6.71875 -42.328125 C 8.6875 -43.296875 10.757812 -43.957031 12.9375 -44.3125 C 15.125 -44.675781 17.132812 -44.859375 18.96875 -44.859375 C 20.082031 -44.859375 21.460938 -44.804688 23.109375 -44.703125 C 24.753906 -44.597656 26.460938 -44.363281 28.234375 -44 C 30.003906 -43.632812 31.671875 -43.097656 33.234375 -42.390625 C 34.796875 -41.691406 36.054688 -40.742188 37.015625 -39.546875 C 37.972656 -38.347656 38.453125 -36.875 38.453125 -35.125 C 38.453125 -33.757812 38.128906 -32.632812 37.484375 -31.75 C 36.847656 -30.875 36.035156 -30.234375 35.046875 -29.828125 C 34.066406 -29.429688 33.066406 -29.207031 32.046875 -29.15625 C 31.234375 -29.15625 30.320312 -29.273438 29.3125 -29.515625 C 28.3125 -29.753906 27.375 -30.148438 26.5 -30.703125 C 25.625 -31.253906 24.953125 -31.957031 24.484375 -32.8125 C 25.597656 -33.238281 26.359375 -33.898438 26.765625 -34.796875 C 27.171875 -35.703125 27.394531 -36.625 27.4375 -37.5625 C 27.476562 -38.539062 27.132812 -39.507812 26.40625 -40.46875 C 25.675781 -41.4375 24.648438 -42.226562 23.328125 -42.84375 C 22.003906 -43.46875 20.46875 -43.78125 18.71875 -43.78125 C 16.789062 -43.78125 15.078125 -43.40625 13.578125 -42.65625 C 12.085938 -41.90625 10.9375 -40.941406 10.125 -39.765625 C 9.3125 -38.585938 8.9375 -37.328125 9 -35.984375 C 9.0625 -34.640625 9.679688 -33.367188 10.859375 -32.171875 C 12.035156 -30.972656 13.863281 -29.992188 16.34375 -29.234375 C 18.050781 -28.671875 19.910156 -28.113281 21.921875 -27.5625 C 23.929688 -27.007812 25.90625 -26.367188 27.84375 -25.640625 C 29.789062 -24.910156 31.566406 -24 33.171875 -22.90625 C 34.773438 -21.820312 36.054688 -20.5 37.015625 -18.9375 C 37.972656 -17.375 38.453125 -15.484375 38.453125 -13.265625 C 38.453125 -10.535156 37.820312 -8.300781 36.5625 -6.5625 C 35.300781 -4.832031 33.675781 -3.488281 31.6875 -2.53125 C 29.707031 -1.570312 27.625 -0.910156 25.4375 -0.546875 C 23.257812 -0.179688 21.273438 0 19.484375 0 C 18.367188 0 16.988281 -0.0507812 15.34375 -0.15625 C 13.707031 -0.269531 12 -0.503906 10.21875 -0.859375 C 8.445312 -1.222656 6.78125 -1.757812 5.21875 -2.46875 C 3.664062 -3.175781 2.40625 -4.113281 1.4375 -5.28125 C 0.476562 -6.457031 0 -7.921875 0 -9.671875 C 0 -11.765625 0.671875 -13.28125 2.015625 -14.21875 C 3.359375 -15.164062 4.820312 -15.660156 6.40625 -15.703125 C 7.21875 -15.742188 8.125 -15.632812 9.125 -15.375 C 10.132812 -15.125 11.085938 -14.726562 11.984375 -14.1875 C 12.878906 -13.65625 13.539062 -12.941406 13.96875 -12.046875 C 12.90625 -11.617188 12.160156 -10.945312 11.734375 -10.03125 C 11.304688 -9.113281 11.070312 -8.1875 11.03125 -7.25 C 11.03125 -6.257812 11.378906 -5.285156 12.078125 -4.328125 C 12.785156 -3.367188 13.800781 -2.578125 15.125 -1.953125 C 16.445312 -1.335938 17.984375 -1.03125 19.734375 -1.03125 C 21.660156 -1.03125 23.367188 -1.398438 24.859375 -2.140625 C 26.359375 -2.890625 27.515625 -3.851562 28.328125 -5.03125 C 29.140625 -6.207031 29.515625 -7.46875 29.453125 -8.8125 C 29.390625 -10.15625 28.769531 -11.4375 27.59375 -12.65625 C 26.414062 -13.875 24.566406 -14.867188 22.046875 -15.640625 C 20.335938 -16.191406 18.488281 -16.734375 16.5 -17.265625 C 14.519531 -17.804688 12.554688 -18.445312 10.609375 -19.1875 C 8.660156 -19.9375 6.882812 -20.84375 5.28125 -21.90625 C 3.6875 -22.976562 2.40625 -24.296875 1.4375 -25.859375 C 0.476562 -27.421875 0 -29.3125 0 -31.53125 Z M 0 -31.53125 "/></g></g><g style="fill:#cb102c;fill-opacity:1;"><g transform="translate(251.602873, 266.057166)"><path style="stroke:none" d="M 3.203125 -9.234375 L 3.203125 -23.90625 C 3.203125 -25.53125 2.878906 -26.609375 2.234375 -27.140625 C 1.597656 -27.671875 0.851562 -27.9375 0 -27.9375 L 0 -29.03125 C 2.132812 -29.113281 4.375 -29.460938 6.71875 -30.078125 C 9.070312 -30.703125 11.101562 -31.359375 12.8125 -32.046875 L 12.8125 -10.890625 C 12.8125 -8.503906 13.367188 -6.835938 14.484375 -5.890625 C 15.597656 -4.953125 17 -4.617188 18.6875 -4.890625 C 20.375 -5.171875 22.03125 -5.890625 23.65625 -7.046875 C 23.988281 -7.304688 24.328125 -7.5625 24.671875 -7.8125 C 25.015625 -8.070312 25.335938 -8.332031 25.640625 -8.59375 L 25.640625 -23.90625 C 25.640625 -25.53125 25.316406 -26.609375 24.671875 -27.140625 C 24.035156 -27.671875 23.289062 -27.9375 22.4375 -27.9375 L 22.4375 -29.03125 C 24.570312 -29.113281 26.8125 -29.460938 29.15625 -30.078125 C 31.507812 -30.703125 33.539062 -31.359375 35.25 -32.046875 L 35.25 -3.78125 C 35.25 1.5625 33.59375 5.660156 30.28125 8.515625 C 26.96875 11.378906 22.191406 12.8125 15.953125 12.8125 C 14.972656 12.8125 13.851562 12.75 12.59375 12.625 C 11.332031 12.5 10.082031 12.234375 8.84375 11.828125 C 7.601562 11.421875 6.535156 10.875 5.640625 10.1875 C 4.097656 8.988281 3.394531 7.472656 3.53125 5.640625 C 3.613281 4.015625 4.265625 2.742188 5.484375 1.828125 C 6.703125 0.910156 8.078125 0.492188 9.609375 0.578125 C 10.460938 0.617188 11.296875 0.8125 12.109375 1.15625 C 12.921875 1.5 13.582031 2.03125 14.09375 2.75 C 13.238281 3.226562 12.585938 3.96875 12.140625 4.96875 C 11.691406 5.96875 11.53125 6.988281 11.65625 8.03125 C 11.789062 9.082031 12.265625 9.953125 13.078125 10.640625 C 13.804688 11.191406 14.671875 11.53125 15.671875 11.65625 C 16.671875 11.789062 17.6875 11.726562 18.71875 11.46875 C 20.550781 11.039062 21.957031 10.207031 22.9375 8.96875 C 23.925781 7.726562 24.625 6.242188 25.03125 4.515625 C 25.4375 2.785156 25.640625 1.023438 25.640625 -0.765625 L 25.640625 -7.25 C 24.359375 -6.300781 23.109375 -5.398438 21.890625 -4.546875 C 20.671875 -3.691406 19.460938 -2.945312 18.265625 -2.3125 C 16.941406 -1.625 15.628906 -1.066406 14.328125 -0.640625 C 13.023438 -0.210938 11.710938 0 10.390625 0 C 8.296875 0 6.742188 -0.394531 5.734375 -1.1875 C 4.734375 -1.976562 4.0625 -3.078125 3.71875 -4.484375 C 3.375 -5.898438 3.203125 -7.484375 3.203125 -9.234375 Z M 3.203125 -9.234375 "/></g></g><g style="fill:#cb102c;fill-opacity:1;"><g transform="translate(286.849507, 266.057166)"><path style="stroke:none" d="M 9.671875 0 L 0 0 L 0 -1.09375 C 0.851562 -1.09375 1.609375 -1.359375 2.265625 -1.890625 C 2.929688 -2.421875 3.265625 -3.5 3.265625 -5.125 L 3.265625 -23.90625 C 3.265625 -25.53125 2.929688 -26.609375 2.265625 -27.140625 C 1.609375 -27.671875 0.851562 -27.9375 0 -27.9375 L 0 -29.03125 C 2.132812 -29.113281 4.382812 -29.460938 6.75 -30.078125 C 9.125 -30.703125 11.171875 -31.359375 12.890625 -32.046875 L 12.890625 -24.796875 C 14.171875 -25.785156 15.425781 -26.695312 16.65625 -27.53125 C 17.894531 -28.363281 19.113281 -29.097656 20.3125 -29.734375 C 21.632812 -30.460938 22.945312 -31.03125 24.25 -31.4375 C 25.5625 -31.84375 26.859375 -32.046875 28.140625 -32.046875 C 30.234375 -32.046875 31.789062 -31.648438 32.8125 -30.859375 C 33.84375 -30.066406 34.515625 -28.976562 34.828125 -27.59375 C 35.148438 -26.207031 35.3125 -24.613281 35.3125 -22.8125 L 35.3125 -5.125 C 35.3125 -3.5 35.640625 -2.421875 36.296875 -1.890625 C 36.960938 -1.359375 37.703125 -1.09375 38.515625 -1.09375 L 38.515625 0 L 28.90625 0 C 28.09375 0 27.351562 -0.273438 26.6875 -0.828125 C 26.03125 -1.390625 25.703125 -2.457031 25.703125 -4.03125 L 25.703125 -21.15625 C 25.703125 -23.582031 25.144531 -25.253906 24.03125 -26.171875 C 22.925781 -27.097656 21.550781 -27.429688 19.90625 -27.171875 C 18.257812 -26.921875 16.601562 -26.195312 14.9375 -25 C 14.59375 -24.738281 14.25 -24.488281 13.90625 -24.25 C 13.5625 -24.019531 13.222656 -23.773438 12.890625 -23.515625 L 12.890625 -4.03125 C 12.890625 -2.457031 12.566406 -1.390625 11.921875 -0.828125 C 11.273438 -0.273438 10.523438 0 9.671875 0 Z M 9.671875 0 "/></g></g><g style="fill:#cb102c;fill-opacity:1;"><g transform="translate(323.762383, 266.057166)"><path style="stroke:none" d="M 31.984375 -22.375 C 31.984375 -20.320312 31.273438 -18.757812 29.859375 -17.6875 C 28.453125 -16.625 26.851562 -16.046875 25.0625 -15.953125 C 23.394531 -15.910156 21.929688 -16.347656 20.671875 -17.265625 C 19.410156 -18.191406 18.71875 -19.53125 18.59375 -21.28125 C 19.875 -21.28125 20.84375 -21.75 21.5 -22.6875 C 22.164062 -23.625 22.5 -24.671875 22.5 -25.828125 C 22.539062 -27.367188 22.238281 -28.546875 21.59375 -29.359375 C 20.957031 -30.171875 20.132812 -30.660156 19.125 -30.828125 C 18.125 -30.992188 17.078125 -30.894531 15.984375 -30.53125 C 14.898438 -30.175781 13.910156 -29.613281 13.015625 -28.84375 C 11.773438 -27.726562 10.820312 -26.378906 10.15625 -24.796875 C 9.5 -23.222656 9.144531 -21.554688 9.09375 -19.796875 C 9.050781 -18.046875 9.3125 -16.382812 9.875 -14.8125 C 10.851562 -12.195312 12.492188 -10.238281 14.796875 -8.9375 C 17.109375 -7.632812 19.566406 -7.003906 22.171875 -7.046875 C 23.835938 -7.085938 25.484375 -7.351562 27.109375 -7.84375 C 28.734375 -8.34375 30.164062 -9.019531 31.40625 -9.875 L 31.984375 -9.359375 C 31.171875 -7.347656 29.960938 -5.644531 28.359375 -4.25 C 26.753906 -2.863281 24.9375 -1.804688 22.90625 -1.078125 C 20.882812 -0.359375 18.804688 0 16.671875 0 C 13.585938 0 10.785156 -0.679688 8.265625 -2.046875 C 5.742188 -3.421875 3.722656 -5.3125 2.203125 -7.71875 C 0.691406 -10.132812 -0.0625 -12.878906 -0.0625 -15.953125 C -0.0625 -19.242188 0.769531 -22.085938 2.4375 -24.484375 C 4.101562 -26.878906 6.289062 -28.738281 9 -30.0625 C 11.71875 -31.382812 14.632812 -32.046875 17.75 -32.046875 C 19.125 -32.046875 20.628906 -31.894531 22.265625 -31.59375 C 23.910156 -31.300781 25.46875 -30.789062 26.9375 -30.0625 C 28.414062 -29.332031 29.625 -28.347656 30.5625 -27.109375 C 31.507812 -25.867188 31.984375 -24.289062 31.984375 -22.375 Z M 31.984375 -22.375 "/></g></g><g style="fill:#cb102c;fill-opacity:1;"><g transform="translate(18.750003, 123.301831)"><path style="stroke:none" d="M 30.515625 2.4375 L 31.140625 -3.59375 C 31.609375 -7.257812 32.050781 -10.703125 32.46875 -13.921875 C 32.894531 -17.140625 33.347656 -20.289062 33.828125 -23.375 C 34.316406 -26.46875 34.878906 -29.632812 35.515625 -32.875 C 36.148438 -36.125 36.894531 -39.617188 37.75 -43.359375 C 37.050781 -43.359375 36.101562 -43.257812 34.90625 -43.0625 C 33.707031 -42.875 32.382812 -42.644531 30.9375 -42.375 C 29.488281 -42.101562 28.039062 -41.800781 26.59375 -41.46875 C 25.15625 -41.144531 23.835938 -40.847656 22.640625 -40.578125 C 21.441406 -40.304688 20.515625 -40.09375 19.859375 -39.9375 C 18.429688 -39.550781 17.039062 -39.175781 15.6875 -38.8125 C 14.332031 -38.445312 12.960938 -38.050781 11.578125 -37.625 C 10.921875 -37.4375 10.070312 -37.164062 9.03125 -36.8125 C 7.988281 -36.46875 7.015625 -36.082031 6.109375 -35.65625 C 5.203125 -35.238281 4.59375 -34.796875 4.28125 -34.328125 C 4.4375 -33.828125 4.726562 -33.441406 5.15625 -33.171875 C 5.582031 -32.898438 5.988281 -32.609375 6.375 -32.296875 L 13.140625 -27.375 C 16.265625 -25.019531 19.015625 -22.425781 21.390625 -19.59375 C 23.765625 -16.757812 25.664062 -13.507812 27.09375 -9.84375 C 28.0625 -7.445312 28.71875 -5.535156 29.0625 -4.109375 C 29.40625 -2.679688 29.644531 -1.503906 29.78125 -0.578125 C 29.914062 0.347656 30.117188 1.253906 30.390625 2.140625 Z M 2.3125 -34.734375 C 2.3125 -35.191406 2.503906 -35.625 2.890625 -36.03125 C 3.273438 -36.4375 3.707031 -36.800781 4.1875 -37.125 C 4.675781 -37.457031 5.078125 -37.722656 5.390625 -37.921875 L 9.671875 -39.71875 C 14.148438 -41.257812 18.710938 -42.550781 23.359375 -43.59375 C 28.003906 -44.632812 32.664062 -45.40625 37.34375 -45.90625 C 37.957031 -45.976562 38.332031 -46.082031 38.46875 -46.21875 C 38.601562 -46.351562 38.695312 -46.488281 38.75 -46.625 C 38.8125 -46.757812 39 -46.828125 39.3125 -46.828125 C 39.851562 -46.828125 40.140625 -46.789062 40.171875 -46.71875 C 40.210938 -46.644531 40.257812 -46.554688 40.3125 -46.453125 C 40.375 -46.359375 40.675781 -46.289062 41.21875 -46.25 C 41.375 -46.25 41.523438 -46.25 41.671875 -46.25 C 41.828125 -46.25 41.984375 -46.25 42.140625 -46.25 C 42.765625 -46.25 43.441406 -46.257812 44.171875 -46.28125 C 44.898438 -46.300781 45.59375 -46.3125 46.25 -46.3125 C 46.445312 -46.3125 46.628906 -46.3125 46.796875 -46.3125 C 46.972656 -46.3125 47.140625 -46.3125 47.296875 -46.3125 C 47.679688 -46.269531 48.421875 -46.191406 49.515625 -46.078125 C 50.617188 -45.960938 51.921875 -45.804688 53.421875 -45.609375 C 54.929688 -45.421875 56.476562 -45.203125 58.0625 -44.953125 C 59.644531 -44.703125 61.117188 -44.421875 62.484375 -44.109375 C 63.859375 -43.804688 64.96875 -43.476562 65.8125 -43.125 C 66.664062 -42.78125 67.09375 -42.394531 67.09375 -41.96875 C 67.09375 -41.3125 66.878906 -40.984375 66.453125 -40.984375 C 66.179688 -40.984375 65.84375 -41.039062 65.4375 -41.15625 C 65.039062 -41.269531 64.53125 -41.40625 63.90625 -41.5625 C 62.75 -41.832031 61.390625 -42.113281 59.828125 -42.40625 C 58.265625 -42.695312 56.632812 -42.957031 54.9375 -43.1875 C 53.238281 -43.414062 51.617188 -43.597656 50.078125 -43.734375 C 48.535156 -43.867188 47.222656 -43.9375 46.140625 -43.9375 C 45.140625 -43.9375 44.242188 -43.894531 43.453125 -43.8125 C 42.660156 -43.738281 41.722656 -43.703125 40.640625 -43.703125 C 40.597656 -43.585938 40.488281 -43.125 40.3125 -42.3125 C 40.144531 -41.507812 39.953125 -40.582031 39.734375 -39.53125 C 39.523438 -38.488281 39.34375 -37.535156 39.1875 -36.671875 C 39.03125 -35.804688 38.9375 -35.238281 38.90625 -34.96875 L 35.78125 -17.3125 C 35.28125 -14.101562 34.84375 -11.003906 34.46875 -8.015625 C 34.101562 -5.023438 33.707031 -1.988281 33.28125 1.09375 C 33.164062 1.945312 33.078125 2.738281 33.015625 3.46875 C 32.960938 4.207031 32.878906 5.019531 32.765625 5.90625 L 30.859375 24.71875 C 30.816406 25.101562 30.773438 25.582031 30.734375 26.15625 C 30.703125 26.738281 30.597656 27.257812 30.421875 27.71875 C 30.242188 28.1875 29.945312 28.421875 29.53125 28.421875 C 29.289062 28.421875 29.113281 28.351562 29 28.21875 C 28.882812 28.082031 28.734375 27.957031 28.546875 27.84375 L 29.53125 11.40625 C 29.53125 9.75 29.421875 7.972656 29.203125 6.078125 C 28.992188 4.179688 28.703125 2.296875 28.328125 0.421875 C 27.960938 -1.441406 27.570312 -3.125 27.15625 -4.625 C 26.570312 -6.789062 25.894531 -8.710938 25.125 -10.390625 C 24.351562 -12.066406 23.472656 -13.65625 22.484375 -15.15625 C 21.503906 -16.664062 20.394531 -18.191406 19.15625 -19.734375 C 18.351562 -20.773438 17.367188 -21.785156 16.203125 -22.765625 C 15.046875 -23.753906 13.847656 -24.710938 12.609375 -25.640625 C 11.378906 -26.566406 10.265625 -27.398438 9.265625 -28.140625 L 4 -31.890625 C 3.570312 -32.203125 3.179688 -32.570312 2.828125 -33 C 2.484375 -33.425781 2.3125 -34.003906 2.3125 -34.734375 Z M 2.3125 -34.734375 "/></g></g><g style="fill:#cb102c;fill-opacity:1;"><g transform="translate(56.959716, 123.301831)"><path style="stroke:none" d="M -0.34375 -4.8125 L 0 -11.34375 C 0.0390625 -11.769531 0.078125 -12.28125 0.109375 -12.875 C 0.148438 -13.476562 0.191406 -13.992188 0.234375 -14.421875 C 0.304688 -16.347656 0.546875 -18.253906 0.953125 -20.140625 C 1.359375 -22.035156 1.789062 -23.910156 2.25 -25.765625 C 2.519531 -26.535156 2.734375 -27.046875 2.890625 -27.296875 C 3.046875 -27.546875 3.257812 -27.671875 3.53125 -27.671875 C 3.644531 -27.671875 3.78125 -27.660156 3.9375 -27.640625 C 4.09375 -27.617188 4.265625 -27.59375 4.453125 -27.5625 C 4.648438 -26.664062 4.613281 -25.609375 4.34375 -24.390625 C 4.070312 -23.179688 3.859375 -22.078125 3.703125 -21.078125 C 3.273438 -18.410156 2.925781 -15.472656 2.65625 -12.265625 C 2.382812 -9.066406 2.25 -6.019531 2.25 -3.125 L 2.4375 3.359375 L 2.890625 2.25 C 3.429688 0.707031 3.882812 -0.585938 4.25 -1.640625 C 4.625 -2.703125 5.050781 -3.753906 5.53125 -4.796875 C 6.007812 -5.847656 6.65625 -7.125 7.46875 -8.625 C 7.894531 -9.394531 8.3125 -10.050781 8.71875 -10.59375 C 9.125 -11.132812 9.75 -11.40625 10.59375 -11.40625 C 11.019531 -11.40625 11.316406 -11.09375 11.484375 -10.46875 C 11.660156 -9.851562 11.769531 -9.179688 11.8125 -8.453125 C 11.851562 -7.722656 11.875 -7.179688 11.875 -6.828125 C 11.875 -5.742188 11.898438 -4.828125 11.953125 -4.078125 C 12.015625 -3.328125 12.238281 -2.585938 12.625 -1.859375 C 13.507812 -2.046875 14.257812 -2.613281 14.875 -3.5625 C 15.488281 -4.507812 16.050781 -5.328125 16.5625 -6.015625 C 16.832031 -6.441406 17.082031 -6.867188 17.3125 -7.296875 C 17.539062 -7.722656 17.769531 -8.164062 18 -8.625 C 18.351562 -9.238281 18.632812 -9.660156 18.84375 -9.890625 C 19.050781 -10.128906 19.273438 -10.25 19.515625 -10.25 C 19.628906 -10.25 19.835938 -10.207031 20.140625 -10.125 C 20.335938 -9.4375 20.300781 -8.878906 20.03125 -8.453125 C 19.757812 -8.023438 19.46875 -7.523438 19.15625 -6.953125 C 18.882812 -6.441406 18.519531 -5.789062 18.0625 -5 C 17.601562 -4.21875 17.082031 -3.445312 16.5 -2.6875 C 15.914062 -1.9375 15.296875 -1.300781 14.640625 -0.78125 C 13.984375 -0.257812 13.3125 0 12.625 0 C 11.34375 0 10.507812 -1.140625 10.125 -3.421875 C 10.007812 -4.078125 9.929688 -4.953125 9.890625 -6.046875 C 9.859375 -7.148438 9.84375 -8.109375 9.84375 -8.921875 C 9.570312 -8.722656 9.242188 -8.273438 8.859375 -7.578125 C 8.472656 -6.890625 8.085938 -6.109375 7.703125 -5.234375 C 7.316406 -4.367188 6.957031 -3.53125 6.625 -2.71875 C 6.300781 -1.90625 6.039062 -1.289062 5.84375 -0.875 C 5.382812 0.320312 5.007812 1.519531 4.71875 2.71875 C 4.425781 3.914062 4.109375 5.054688 3.765625 6.140625 C 3.566406 6.753906 3.34375 7.144531 3.09375 7.3125 C 2.84375 7.488281 2.445312 7.578125 1.90625 7.578125 C 1.488281 7.578125 1.144531 7.210938 0.875 6.484375 C 0.601562 5.753906 0.378906 4.835938 0.203125 3.734375 C 0.0234375 2.628906 -0.0976562 1.488281 -0.171875 0.3125 C -0.253906 -0.863281 -0.300781 -1.921875 -0.3125 -2.859375 C -0.332031 -3.804688 -0.34375 -4.457031 -0.34375 -4.8125 Z M -0.34375 -4.8125 "/></g></g><g style="fill:#cb102c;fill-opacity:1;"><g transform="translate(74.61726, 123.301831)"><path style="stroke:none" d="M 2.65625 -10.484375 C 3.394531 -10.867188 4.207031 -11.394531 5.09375 -12.0625 C 5.976562 -12.738281 6.460938 -13.539062 6.546875 -14.46875 C 6.046875 -14.394531 5.515625 -14.125 4.953125 -13.65625 C 4.390625 -13.195312 3.90625 -12.675781 3.5 -12.09375 C 3.09375 -11.519531 2.8125 -10.984375 2.65625 -10.484375 Z M 0.0625 -9.09375 C 0.0625 -10.050781 0.378906 -11.085938 1.015625 -12.203125 C 1.648438 -13.328125 2.441406 -14.285156 3.390625 -15.078125 C 4.335938 -15.867188 5.269531 -16.265625 6.1875 -16.265625 C 7.46875 -16.265625 8.132812 -15.78125 8.1875 -14.8125 C 8.25 -13.851562 7.835938 -12.8125 6.953125 -11.6875 C 6.484375 -11.1875 5.785156 -10.609375 4.859375 -9.953125 C 3.929688 -9.296875 3.023438 -8.929688 2.140625 -8.859375 C 2.140625 -8.242188 2.15625 -7.691406 2.1875 -7.203125 C 2.226562 -6.722656 2.503906 -6.234375 3.015625 -5.734375 C 3.515625 -5.234375 4.148438 -4.984375 4.921875 -4.984375 C 5.921875 -4.984375 6.960938 -5.300781 8.046875 -5.9375 C 9.128906 -6.570312 9.957031 -7.101562 10.53125 -7.53125 C 10.769531 -7.71875 10.953125 -7.867188 11.078125 -7.984375 C 11.210938 -8.097656 11.378906 -8.234375 11.578125 -8.390625 C 12.390625 -9.015625 12.898438 -9.46875 13.109375 -9.75 C 13.328125 -10.039062 13.507812 -10.234375 13.65625 -10.328125 C 13.8125 -10.429688 14.179688 -10.484375 14.765625 -10.484375 C 14.835938 -10.054688 14.863281 -9.765625 14.84375 -9.609375 C 14.820312 -9.453125 14.679688 -9.222656 14.421875 -8.921875 C 13.722656 -8.222656 12.84375 -7.425781 11.78125 -6.53125 C 10.71875 -5.644531 9.578125 -4.875 8.359375 -4.21875 C 7.148438 -3.5625 5.945312 -3.234375 4.75 -3.234375 C 4.132812 -3.234375 3.546875 -3.335938 2.984375 -3.546875 C 2.421875 -3.765625 1.890625 -4.125 1.390625 -4.625 C 0.691406 -5.320312 0.296875 -6.035156 0.203125 -6.765625 C 0.109375 -7.503906 0.0625 -8.28125 0.0625 -9.09375 Z M 0.0625 -9.09375 "/></g></g></g></svg>