<svg xmlns="http://www.w3.org/2000/svg" xmlns:xlink="http://www.w3.org/1999/xlink" width="500" zoomAndPan="magnify" viewBox="0 0 375 374.999991" height="500" preserveAspectRatio="xMidYMid meet" version="1.2"><defs><clipPath id="9828e0a823"><path d="M 99.191406 96.394531 L 355.769531 96.394531 L 355.769531 296.886719 L 99.191406 296.886719 Z M 99.191406 96.394531 "/></clipPath><clipPath id="5ceba2e730"><path d="M 18.75 92.265625 L 276 92.265625 L 276 293 L 18.75 293 Z M 18.75 92.265625 "/></clipPath></defs><g id="af925d242a"><g clip-rule="nonzero" clip-path="url(#9828e0a823)"><path style=" stroke:none;fill-rule:nonzero;fill:#ede1d8;fill-opacity:1;" d="M 355.75 194.046875 L 355.640625 191.132812 L 355.582031 189.675781 C 355.558594 189.191406 355.503906 188.710938 355.464844 188.226562 C 354.863281 180.480469 353.371094 172.8125 351.027344 165.421875 C 346.261719 150.671875 338.0625 137.082031 327.207031 126.140625 C 325.890625 124.738281 324.449219 123.457031 323.042969 122.144531 C 322.351562 121.472656 321.601562 120.871094 320.871094 120.246094 L 318.660156 118.386719 L 316.371094 116.636719 L 315.226562 115.757812 L 314.941406 115.542969 L 314.644531 115.335938 L 314.050781 114.925781 L 311.683594 113.285156 L 311.089844 112.875 L 310.480469 112.492188 L 309.257812 111.730469 C 302.746094 107.660156 295.796875 104.292969 288.519531 101.886719 C 281.261719 99.449219 273.730469 97.855469 266.128906 97.144531 C 265.175781 97.0625 264.222656 97.019531 263.273438 96.953125 L 261.84375 96.863281 C 261.367188 96.835938 260.890625 96.792969 260.414062 96.800781 L 257.554688 96.765625 L 256.125 96.746094 C 255.648438 96.742188 255.171875 96.769531 254.695312 96.78125 C 250.886719 96.84375 247.085938 97.203125 243.316406 97.722656 L 241.902344 97.929688 C 241.433594 98.003906 240.960938 98.058594 240.496094 98.15625 L 237.6875 98.675781 C 237.21875 98.757812 236.757812 98.878906 236.296875 98.976562 L 234.902344 99.289062 C 234.441406 99.398438 233.972656 99.492188 233.515625 99.613281 L 232.136719 99.980469 C 230.292969 100.4375 228.484375 101.023438 226.667969 101.578125 L 223.976562 102.515625 L 223.308594 102.75 L 222.644531 103.007812 L 219.992188 104.042969 L 218.6875 104.609375 L 217.378906 105.171875 L 216.730469 105.457031 L 216.085938 105.761719 L 213.519531 106.988281 L 211 108.304688 C 207.667969 110.109375 204.4375 112.09375 201.328125 114.246094 C 204.492188 112.171875 207.769531 110.277344 211.136719 108.566406 L 213.679688 107.316406 L 216.265625 106.164062 L 216.914062 105.875 L 217.566406 105.609375 L 220.191406 104.550781 L 221.523438 104.074219 L 222.855469 103.59375 L 223.519531 103.351562 L 224.195312 103.136719 L 226.886719 102.277344 C 228.703125 101.769531 230.511719 101.238281 232.351562 100.832031 L 233.722656 100.503906 C 234.183594 100.394531 234.644531 100.316406 235.105469 100.21875 L 236.492188 99.945312 C 236.953125 99.855469 237.414062 99.75 237.878906 99.683594 L 240.664062 99.238281 C 241.128906 99.15625 241.597656 99.113281 242.0625 99.054688 L 243.464844 98.882812 C 247.199219 98.464844 250.957031 98.210938 254.714844 98.242188 C 255.183594 98.246094 255.652344 98.226562 256.121094 98.246094 L 257.53125 98.296875 L 260.34375 98.40625 C 260.8125 98.414062 261.277344 98.464844 261.746094 98.507812 L 263.144531 98.628906 C 264.082031 98.71875 265.015625 98.785156 265.945312 98.890625 C 273.394531 99.785156 280.722656 101.535156 287.746094 104.09375 C 294.78125 106.625 301.460938 110.078125 307.671875 114.1875 L 308.839844 114.957031 L 309.421875 115.34375 L 309.984375 115.757812 L 312.238281 117.40625 L 312.804688 117.816406 L 313.085938 118.023438 L 313.359375 118.242188 L 314.445312 119.117188 L 316.617188 120.871094 L 318.703125 122.722656 C 319.394531 123.347656 320.105469 123.945312 320.757812 124.609375 C 322.082031 125.917969 323.441406 127.183594 324.679688 128.574219 C 334.875 139.398438 342.375 152.636719 346.550781 166.796875 C 348.605469 173.890625 349.828125 181.207031 350.210938 188.558594 C 350.234375 189.019531 350.277344 189.476562 350.289062 189.9375 L 350.304688 191.320312 L 350.339844 194.078125 C 350.339844 194.308594 350.351562 194.539062 350.34375 194.769531 L 350.316406 195.457031 L 350.152344 199.59375 L 349.90625 202.339844 L 349.785156 203.710938 C 349.761719 203.9375 349.746094 204.171875 349.71875 204.394531 L 349.621094 205.078125 L 349.238281 207.808594 C 349.171875 208.257812 349.117188 208.714844 349.039062 209.167969 L 348.777344 210.519531 C 347.441406 217.734375 345.300781 224.789062 342.34375 231.480469 C 339.359375 238.160156 335.617188 244.484375 331.21875 250.304688 C 330.957031 250.679688 330.660156 251.027344 330.378906 251.382812 L 328.65625 253.511719 C 328.371094 253.863281 328.089844 254.226562 327.78125 254.558594 L 325.964844 256.601562 C 325.660156 256.9375 325.363281 257.285156 325.054688 257.617188 L 322.183594 260.546875 C 322.03125 260.710938 321.863281 260.867188 321.695312 261.019531 L 321.195312 261.484375 L 320.191406 262.414062 L 319.195312 263.339844 L 318.695312 263.804688 L 318.171875 264.246094 L 316.085938 266.003906 L 315.566406 266.441406 C 315.394531 266.589844 315.21875 266.734375 315.035156 266.871094 L 313.953125 267.699219 L 311.785156 269.355469 C 311.046875 269.878906 310.292969 270.386719 309.546875 270.90625 C 308.796875 271.417969 308.066406 271.957031 307.285156 272.421875 C 305.738281 273.371094 304.226562 274.371094 302.617188 275.222656 L 300.242188 276.542969 L 297.804688 277.75 C 296.203125 278.589844 294.515625 279.261719 292.863281 280 C 292.042969 280.378906 291.183594 280.671875 290.339844 281 L 287.800781 281.957031 L 285.21875 282.792969 C 284.359375 283.066406 283.507812 283.367188 282.628906 283.585938 C 280.878906 284.039062 279.152344 284.566406 277.375 284.90625 C 270.324219 286.472656 263.101562 287.222656 255.894531 287.144531 L 255.753906 287.144531 L 255.496094 287.160156 C 248.613281 287.648438 241.703125 287.199219 234.960938 285.851562 C 228.214844 284.5 221.648438 282.234375 215.355469 279.304688 C 209.054688 276.371094 203.035156 272.746094 197.277344 268.699219 C 191.515625 264.644531 186.019531 260.148438 180.730469 255.378906 C 175.445312 250.605469 170.367188 245.558594 165.4375 240.335938 C 160.511719 235.109375 155.734375 229.714844 151.054688 224.207031 C 145.546875 217.71875 140.171875 211.082031 134.859375 204.371094 L 146.476562 195.398438 L 99.199219 168.917969 L 112.863281 221.355469 L 124.230469 212.574219 C 129.851562 219.3125 135.5625 226.007812 141.449219 232.585938 C 146.378906 238.101562 151.4375 243.527344 156.683594 248.8125 C 161.929688 254.089844 167.363281 259.226562 173.0625 264.109375 C 178.757812 268.988281 184.722656 273.621094 191.035156 277.824219 C 197.34375 282.019531 204.003906 285.804688 211.046875 288.867188 C 218.085938 291.925781 225.503906 294.28125 233.140625 295.609375 C 240.734375 296.925781 248.515625 297.230469 256.167969 296.496094 C 264 296.359375 271.8125 295.339844 279.398438 293.445312 C 281.328125 293.019531 283.210938 292.398438 285.109375 291.847656 C 286.0625 291.585938 286.988281 291.234375 287.921875 290.910156 L 290.714844 289.925781 L 293.457031 288.808594 C 294.367188 288.425781 295.292969 288.082031 296.179688 287.644531 C 297.960938 286.800781 299.773438 286.015625 301.5 285.058594 L 304.113281 283.675781 L 306.664062 282.175781 C 308.378906 281.207031 309.996094 280.078125 311.644531 279.003906 C 312.480469 278.480469 313.257812 277.875 314.054688 277.300781 C 314.847656 276.71875 315.648438 276.144531 316.433594 275.554688 L 318.734375 273.707031 L 319.878906 272.777344 C 320.074219 272.628906 320.257812 272.464844 320.441406 272.300781 L 320.992188 271.8125 L 323.195312 269.855469 L 323.746094 269.367188 L 325.328125 267.820312 L 326.90625 266.277344 C 327.082031 266.105469 327.257812 265.933594 327.421875 265.75 L 329.429688 263.597656 L 330.429688 262.519531 C 330.753906 262.148438 331.066406 261.769531 331.386719 261.398438 L 333.285156 259.148438 C 333.605469 258.78125 333.898438 258.386719 334.199219 257.996094 L 335.09375 256.832031 L 335.988281 255.664062 C 336.285156 255.273438 336.589844 254.890625 336.859375 254.484375 C 341.425781 248.105469 345.261719 241.226562 348.261719 234.007812 C 351.238281 226.773438 353.324219 219.195312 354.546875 211.496094 L 354.78125 210.054688 C 354.855469 209.574219 354.898438 209.085938 354.957031 208.605469 L 355.289062 205.703125 L 355.375 204.976562 C 355.398438 204.734375 355.40625 204.492188 355.425781 204.25 L 355.703125 199.878906 L 355.746094 196.960938 L 355.761719 195.503906 L 355.769531 194.773438 C 355.773438 194.53125 355.757812 194.289062 355.75 194.046875 "/></g><g clip-rule="nonzero" clip-path="url(#5ceba2e730)"><path style=" stroke:none;fill-rule:nonzero;fill:#ede1d8;fill-opacity:1;" d="M 161.203125 282.117188 L 158.617188 283.28125 L 157.972656 283.574219 C 157.757812 283.667969 157.535156 283.753906 157.316406 283.84375 L 154.691406 284.910156 C 154.253906 285.082031 153.804688 285.234375 153.363281 285.398438 L 152.03125 285.882812 C 151.589844 286.042969 151.148438 286.210938 150.695312 286.347656 L 148 287.214844 C 147.097656 287.488281 146.183594 287.730469 145.277344 287.988281 C 144.375 288.257812 143.453125 288.464844 142.535156 288.6875 C 140.710938 289.15625 138.855469 289.492188 137.007812 289.859375 L 134.21875 290.308594 L 133.523438 290.421875 L 132.820312 290.507812 L 131.417969 290.675781 L 130.015625 290.847656 C 129.550781 290.902344 129.078125 290.929688 128.609375 290.972656 C 127.671875 291.042969 126.734375 291.144531 125.796875 291.195312 L 122.976562 291.320312 C 122.507812 291.347656 122.039062 291.347656 121.566406 291.351562 L 120.160156 291.359375 L 118.75 291.367188 C 118.277344 291.359375 117.808594 291.335938 117.339844 291.320312 L 114.523438 291.210938 C 113.582031 291.195312 112.648438 291.078125 111.714844 291.003906 L 108.910156 290.753906 C 101.449219 289.894531 94.109375 288.152344 87.070312 285.613281 L 85.75 285.148438 C 85.3125 284.980469 84.878906 284.796875 84.449219 284.621094 L 81.851562 283.558594 C 81.636719 283.46875 81.417969 283.386719 81.207031 283.289062 L 80.570312 282.992188 L 79.300781 282.398438 L 78.03125 281.800781 L 77.078125 281.355469 L 76.769531 281.195312 L 74.292969 279.882812 L 73.054688 279.230469 C 72.648438 279 72.25 278.757812 71.847656 278.519531 L 69.4375 277.09375 C 69.03125 276.863281 68.644531 276.597656 68.257812 276.34375 L 67.089844 275.570312 L 65.921875 274.800781 C 65.53125 274.542969 65.136719 274.296875 64.765625 274.015625 L 62.507812 272.363281 L 61.378906 271.535156 L 60.292969 270.65625 L 58.117188 268.902344 L 57.847656 268.683594 L 57.585938 268.449219 L 56.019531 267.058594 L 54.976562 266.132812 L 54.457031 265.667969 L 53.957031 265.179688 L 51.960938 263.226562 C 51.632812 262.898438 51.285156 262.585938 50.972656 262.242188 L 50.023438 261.21875 L 48.125 259.175781 C 47.515625 258.472656 46.921875 257.757812 46.320312 257.050781 C 45.09375 255.652344 43.996094 254.148438 42.863281 252.679688 C 42.285156 251.953125 41.777344 251.175781 41.246094 250.414062 L 39.664062 248.121094 L 38.191406 245.761719 L 37.457031 244.582031 L 37.273438 244.285156 L 37.105469 243.980469 L 36.765625 243.371094 C 33.085938 236.933594 30.132812 230.09375 28.027344 223.007812 C 25.960938 215.910156 24.722656 208.585938 24.328125 201.226562 L 24.242188 199.847656 L 24.222656 198.464844 L 24.191406 195.699219 L 24.179688 195.011719 C 24.183594 194.78125 24.199219 194.550781 24.203125 194.320312 L 24.257812 192.9375 L 24.363281 190.179688 L 24.605469 187.429688 L 24.730469 186.054688 L 24.789062 185.371094 C 24.816406 185.144531 24.851562 184.914062 24.882812 184.6875 L 25.265625 181.957031 L 25.457031 180.59375 L 25.71875 179.238281 C 27.046875 172.015625 29.191406 164.949219 32.128906 158.242188 C 35.109375 151.550781 38.851562 145.214844 43.25 139.386719 C 52.097656 127.765625 63.617188 118.226562 76.675781 111.882812 C 78.28125 111.042969 79.964844 110.367188 81.621094 109.628906 C 82.445312 109.246094 83.304688 108.953125 84.148438 108.625 L 86.6875 107.664062 L 89.273438 106.828125 C 90.132812 106.554688 90.988281 106.25 91.867188 106.035156 C 93.617188 105.582031 95.347656 105.050781 97.125 104.707031 C 104.183594 103.140625 111.414062 102.390625 118.632812 102.46875 L 118.769531 102.46875 L 119.027344 102.449219 C 125.910156 101.960938 132.820312 102.410156 139.5625 103.761719 C 146.308594 105.109375 152.875 107.378906 159.167969 110.308594 C 165.46875 113.242188 171.488281 116.863281 177.25 120.910156 C 183.007812 124.964844 188.507812 129.460938 193.792969 134.230469 C 199.078125 139.003906 204.15625 144.050781 209.085938 149.273438 C 214.011719 154.5 218.792969 159.894531 223.46875 165.40625 C 228.976562 171.894531 234.351562 178.527344 239.664062 185.238281 L 228.046875 194.210938 L 275.324219 220.691406 L 261.664062 168.253906 L 250.292969 177.035156 C 244.671875 170.296875 238.964844 163.601562 233.078125 157.023438 C 228.144531 151.507812 223.085938 146.078125 217.839844 140.796875 C 212.59375 135.515625 207.160156 130.382812 201.464844 125.5 C 195.765625 120.621094 189.800781 115.988281 183.488281 111.785156 C 177.179688 107.589844 170.523438 103.804688 163.476562 100.742188 C 156.4375 97.679688 149.023438 95.324219 141.382812 94 C 133.792969 92.679688 126.007812 92.375 118.355469 93.109375 C 110.515625 93.246094 102.695312 94.273438 95.097656 96.167969 C 93.164062 96.59375 91.28125 97.21875 89.382812 97.769531 C 88.429688 98.03125 87.503906 98.386719 86.566406 98.707031 L 83.769531 99.695312 L 81.023438 100.816406 C 80.113281 101.195312 79.1875 101.542969 78.300781 101.980469 C 76.515625 102.824219 74.703125 103.617188 72.976562 104.574219 C 58.949219 111.847656 46.78125 122.488281 37.601562 135.214844 C 33.035156 141.597656 29.203125 148.492188 26.207031 155.726562 C 23.246094 162.976562 21.15625 170.5625 19.949219 178.269531 L 19.710938 179.714844 L 19.542969 181.167969 L 19.210938 184.074219 C 19.183594 184.316406 19.152344 184.558594 19.132812 184.800781 L 19.085938 185.527344 L 18.992188 186.988281 C 18.933594 187.960938 18.863281 188.929688 18.8125 189.902344 L 18.777344 192.824219 L 18.757812 194.285156 C 18.753906 194.527344 18.75 194.769531 18.75 195.015625 L 18.777344 195.742188 L 18.890625 198.660156 L 18.945312 200.117188 L 19.074219 201.570312 C 19.6875 209.324219 21.195312 217 23.554688 224.390625 C 25.957031 231.773438 29.230469 238.847656 33.242188 245.460938 L 33.609375 246.085938 L 33.796875 246.398438 L 34.792969 247.914062 L 36.390625 250.332031 L 38.09375 252.675781 C 38.667969 253.453125 39.21875 254.246094 39.839844 254.988281 C 41.058594 256.484375 42.238281 258.015625 43.546875 259.433594 C 44.191406 260.152344 44.824219 260.878906 45.476562 261.589844 L 47.496094 263.660156 L 48.507812 264.691406 C 48.84375 265.039062 49.210938 265.355469 49.558594 265.6875 L 51.675781 267.65625 L 52.207031 268.144531 L 52.757812 268.609375 L 53.863281 269.542969 L 55.792969 271.171875 L 56.078125 271.390625 L 58.371094 273.148438 L 59.519531 274.023438 L 60.703125 274.847656 L 63.074219 276.492188 C 63.464844 276.773438 63.878906 277.015625 64.285156 277.273438 L 65.511719 278.035156 L 66.734375 278.796875 C 67.140625 279.050781 67.546875 279.3125 67.96875 279.539062 L 70.488281 280.945312 C 70.90625 281.175781 71.324219 281.417969 71.746094 281.640625 L 73.039062 282.28125 L 75.617188 283.5625 L 75.941406 283.722656 L 76.269531 283.867188 L 76.929688 284.15625 L 79.566406 285.308594 L 80.226562 285.59375 C 80.449219 285.691406 80.675781 285.769531 80.898438 285.855469 L 83.585938 286.875 C 84.035156 287.042969 84.480469 287.222656 84.933594 287.378906 L 86.300781 287.824219 C 93.578125 290.238281 101.121094 291.824219 108.734375 292.5 L 111.597656 292.683594 C 112.546875 292.734375 113.5 292.828125 114.457031 292.820312 L 117.320312 292.855469 C 117.796875 292.859375 118.273438 292.871094 118.75 292.867188 L 120.179688 292.820312 L 121.609375 292.777344 C 122.089844 292.761719 122.566406 292.75 123.039062 292.707031 L 125.894531 292.507812 C 126.84375 292.429688 127.789062 292.308594 128.738281 292.207031 C 129.210938 292.152344 129.683594 292.113281 130.15625 292.046875 L 131.574219 291.839844 L 132.984375 291.628906 L 133.691406 291.523438 L 134.394531 291.390625 L 137.203125 290.867188 C 139.058594 290.445312 140.921875 290.058594 142.753906 289.535156 C 143.671875 289.292969 144.59375 289.058594 145.5 288.761719 C 146.40625 288.476562 147.320312 288.210938 148.222656 287.910156 L 150.914062 286.96875 C 151.363281 286.820312 151.804688 286.640625 152.246094 286.464844 L 153.574219 285.945312 C 154.011719 285.769531 154.457031 285.601562 154.898438 285.421875 L 156.203125 284.847656 L 157.507812 284.28125 C 157.726562 284.183594 157.941406 284.09375 158.160156 283.992188 L 158.800781 283.683594 L 161.363281 282.445312 L 163.878906 281.117188 C 167.207031 279.296875 170.4375 277.296875 173.542969 275.128906 C 170.378906 277.21875 167.109375 279.128906 163.746094 280.859375 L 161.203125 282.117188 "/></g><g style="fill:#1e1932;fill-opacity:1;"><g transform="translate(62.98555, 202.09892)"><path style="stroke:none" d="M 0 -49.421875 C 0 -53.710938 0.984375 -57.226562 2.953125 -59.96875 C 4.929688 -62.71875 7.460938 -64.84375 10.546875 -66.34375 C 13.628906 -67.851562 16.878906 -68.890625 20.296875 -69.453125 C 23.710938 -70.023438 26.859375 -70.3125 29.734375 -70.3125 C 31.472656 -70.3125 33.628906 -70.226562 36.203125 -70.0625 C 38.785156 -69.894531 41.46875 -69.523438 44.25 -68.953125 C 47.03125 -68.390625 49.640625 -67.554688 52.078125 -66.453125 C 54.523438 -65.347656 56.5 -63.859375 58 -61.984375 C 59.507812 -60.109375 60.265625 -57.796875 60.265625 -55.046875 C 60.265625 -52.898438 59.765625 -51.140625 58.765625 -49.765625 C 57.765625 -48.398438 56.492188 -47.398438 54.953125 -46.765625 C 53.410156 -46.128906 51.835938 -45.773438 50.234375 -45.703125 C 48.953125 -45.703125 47.523438 -45.882812 45.953125 -46.25 C 44.378906 -46.625 42.90625 -47.242188 41.53125 -48.109375 C 40.164062 -48.984375 39.113281 -50.09375 38.375 -51.4375 C 40.113281 -52.101562 41.300781 -53.140625 41.9375 -54.546875 C 42.570312 -55.953125 42.925781 -57.390625 43 -58.859375 C 43.0625 -60.398438 42.519531 -61.925781 41.375 -63.4375 C 40.238281 -64.945312 38.632812 -66.1875 36.5625 -67.15625 C 34.488281 -68.125 32.078125 -68.609375 29.328125 -68.609375 C 26.316406 -68.609375 23.640625 -68.019531 21.296875 -66.84375 C 18.953125 -65.675781 17.144531 -64.171875 15.875 -62.328125 C 14.601562 -60.484375 14.015625 -58.503906 14.109375 -56.390625 C 14.210938 -54.285156 15.1875 -52.296875 17.03125 -50.421875 C 18.875 -48.546875 21.734375 -47.007812 25.609375 -45.8125 C 28.296875 -44.9375 31.210938 -44.0625 34.359375 -43.1875 C 37.503906 -42.320312 40.597656 -41.316406 43.640625 -40.171875 C 46.691406 -39.035156 49.472656 -37.613281 51.984375 -35.90625 C 54.492188 -34.195312 56.5 -32.117188 58 -29.671875 C 59.507812 -27.234375 60.265625 -24.273438 60.265625 -20.796875 C 60.265625 -16.503906 59.273438 -13.003906 57.296875 -10.296875 C 55.328125 -7.585938 52.785156 -5.476562 49.671875 -3.96875 C 46.554688 -2.457031 43.289062 -1.414062 39.875 -0.84375 C 36.457031 -0.28125 33.34375 0 30.53125 0 C 28.789062 0 26.628906 -0.0820312 24.046875 -0.25 C 21.472656 -0.414062 18.796875 -0.78125 16.015625 -1.34375 C 13.242188 -1.914062 10.632812 -2.753906 8.1875 -3.859375 C 5.738281 -4.972656 3.757812 -6.445312 2.25 -8.28125 C 0.75 -10.125 0 -12.421875 0 -15.171875 C 0 -18.453125 1.050781 -20.828125 3.15625 -22.296875 C 5.269531 -23.773438 7.566406 -24.546875 10.046875 -24.609375 C 11.316406 -24.679688 12.738281 -24.515625 14.3125 -24.109375 C 15.882812 -23.703125 17.375 -23.082031 18.78125 -22.25 C 20.1875 -21.414062 21.226562 -20.296875 21.90625 -18.890625 C 20.226562 -18.210938 19.050781 -17.15625 18.375 -15.71875 C 17.707031 -14.28125 17.34375 -12.820312 17.28125 -11.34375 C 17.28125 -9.8125 17.832031 -8.289062 18.9375 -6.78125 C 20.039062 -5.269531 21.628906 -4.03125 23.703125 -3.0625 C 25.785156 -2.09375 28.195312 -1.609375 30.9375 -1.609375 C 33.945312 -1.609375 36.625 -2.191406 38.96875 -3.359375 C 41.3125 -4.535156 43.117188 -6.039062 44.390625 -7.875 C 45.671875 -9.71875 46.257812 -11.695312 46.15625 -13.8125 C 46.050781 -15.925781 45.078125 -17.9375 43.234375 -19.84375 C 41.398438 -21.75 38.507812 -23.304688 34.5625 -24.515625 C 31.875 -25.378906 28.972656 -26.226562 25.859375 -27.0625 C 22.753906 -27.90625 19.675781 -28.910156 16.625 -30.078125 C 13.570312 -31.253906 10.789062 -32.675781 8.28125 -34.34375 C 5.769531 -36.019531 3.757812 -38.082031 2.25 -40.53125 C 0.75 -42.976562 0 -45.941406 0 -49.421875 Z M 0 -49.421875 "/></g></g><g style="fill:#1e1932;fill-opacity:1;"><g transform="translate(122.652949, 202.09892)"><path style="stroke:none" d="M 25.109375 -50.234375 C 29.734375 -50.234375 33.953125 -49.109375 37.765625 -46.859375 C 41.585938 -44.617188 44.617188 -41.585938 46.859375 -37.765625 C 49.109375 -33.953125 50.234375 -29.734375 50.234375 -25.109375 C 50.234375 -20.492188 49.109375 -16.289062 46.859375 -12.5 C 44.617188 -8.71875 41.585938 -5.6875 37.765625 -3.40625 C 33.953125 -1.132812 29.734375 0 25.109375 0 C 20.492188 0 16.289062 -1.132812 12.5 -3.40625 C 8.71875 -5.6875 5.6875 -8.71875 3.40625 -12.5 C 1.132812 -16.289062 0 -20.492188 0 -25.109375 C 0 -29.734375 1.132812 -33.953125 3.40625 -37.765625 C 5.6875 -41.585938 8.71875 -44.617188 12.5 -46.859375 C 16.289062 -49.109375 20.492188 -50.234375 25.109375 -50.234375 Z M 25.109375 -48.515625 C 23.304688 -48.515625 21.632812 -47.457031 20.09375 -45.34375 C 18.550781 -43.238281 17.328125 -40.425781 16.421875 -36.90625 C 15.515625 -33.394531 15.0625 -29.460938 15.0625 -25.109375 C 15.0625 -20.828125 15.515625 -16.910156 16.421875 -13.359375 C 17.328125 -9.804688 18.550781 -6.972656 20.09375 -4.859375 C 21.632812 -2.753906 23.304688 -1.703125 25.109375 -1.703125 C 26.984375 -1.703125 28.675781 -2.753906 30.1875 -4.859375 C 31.695312 -6.972656 32.898438 -9.804688 33.796875 -13.359375 C 34.703125 -16.910156 35.15625 -20.828125 35.15625 -25.109375 C 35.15625 -29.460938 34.703125 -33.394531 33.796875 -36.90625 C 32.898438 -40.425781 31.695312 -43.238281 30.1875 -45.34375 C 28.675781 -47.457031 26.984375 -48.515625 25.109375 -48.515625 Z M 25.109375 -48.515625 "/></g></g><g style="fill:#1e1932;fill-opacity:1;"><g transform="translate(170.266239, 202.09892)"><path style="stroke:none" d="M 60.171875 -49.015625 C 60.171875 -46.066406 59.550781 -43.570312 58.3125 -41.53125 C 57.070312 -39.488281 55.476562 -37.929688 53.53125 -36.859375 C 51.59375 -35.796875 49.488281 -35.226562 47.21875 -35.15625 C 44.0625 -35.019531 41.445312 -35.804688 39.375 -37.515625 C 37.300781 -39.222656 36.0625 -41.71875 35.65625 -45 C 38.800781 -44.9375 41.226562 -46.023438 42.9375 -48.265625 C 44.644531 -50.515625 45.46875 -53.144531 45.40625 -56.15625 C 45.332031 -59.238281 44.726562 -61.734375 43.59375 -63.640625 C 42.457031 -65.546875 40.96875 -66.898438 39.125 -67.703125 C 37.28125 -68.503906 35.320312 -68.785156 33.25 -68.546875 C 31.175781 -68.316406 29.203125 -67.601562 27.328125 -66.40625 C 24.046875 -64.257812 21.566406 -61.109375 19.890625 -56.953125 C 18.210938 -52.804688 17.207031 -48.390625 16.875 -43.703125 C 16.675781 -38.140625 17.429688 -32.976562 19.140625 -28.21875 C 20.847656 -23.46875 23.457031 -19.632812 26.96875 -16.71875 C 30.488281 -13.8125 34.757812 -12.289062 39.78125 -12.15625 C 43.332031 -12.082031 46.847656 -12.832031 50.328125 -14.40625 C 53.804688 -15.988281 56.71875 -18.382812 59.0625 -21.59375 L 60.171875 -20.59375 C 58.703125 -16.175781 56.457031 -12.425781 53.4375 -9.34375 C 50.425781 -6.257812 47.007812 -3.929688 43.1875 -2.359375 C 39.375 -0.785156 35.425781 0 31.34375 0 C 27.050781 0 23.015625 -0.851562 19.234375 -2.5625 C 15.453125 -4.269531 12.117188 -6.695312 9.234375 -9.84375 C 6.359375 -12.988281 4.097656 -16.703125 2.453125 -20.984375 C 0.816406 -25.273438 0 -30 0 -35.15625 C 0 -40.507812 0.898438 -45.347656 2.703125 -49.671875 C 4.515625 -53.992188 6.976562 -57.691406 10.09375 -60.765625 C 13.207031 -63.847656 16.773438 -66.207031 20.796875 -67.84375 C 24.816406 -69.488281 29.035156 -70.3125 33.453125 -70.3125 C 36.066406 -70.3125 38.910156 -69.976562 41.984375 -69.3125 C 45.066406 -68.644531 47.976562 -67.503906 50.71875 -65.890625 C 53.46875 -64.285156 55.726562 -62.109375 57.5 -59.359375 C 59.28125 -56.617188 60.171875 -53.171875 60.171875 -49.015625 Z M 60.171875 -49.015625 "/></g></g><g style="fill:#1e1932;fill-opacity:1;"><g transform="translate(229.933638, 202.09892)"><path style="stroke:none" d="M 40.28125 0 C 38.9375 0 37.742188 -0.429688 36.703125 -1.296875 C 35.671875 -2.171875 35.15625 -3.847656 35.15625 -6.328125 L 35.15625 -8.734375 C 32.8125 -5.921875 29.929688 -3.757812 26.515625 -2.25 C 23.097656 -0.75 19.515625 0 15.765625 0 C 10.609375 0 6.691406 -1.300781 4.015625 -3.90625 C 1.335938 -6.519531 0 -9.570312 0 -13.0625 C 0 -16.144531 0.734375 -18.753906 2.203125 -20.890625 C 3.679688 -23.035156 5.570312 -24.894531 7.875 -26.46875 C 10.1875 -28.039062 12.664062 -29.460938 15.3125 -30.734375 C 17.957031 -32.003906 20.503906 -33.289062 22.953125 -34.59375 C 25.398438 -35.90625 27.457031 -37.398438 29.125 -39.078125 C 31 -40.953125 31.835938 -42.625 31.640625 -44.09375 C 31.441406 -45.570312 30.585938 -46.710938 29.078125 -47.515625 C 27.578125 -48.316406 25.785156 -48.648438 23.703125 -48.515625 C 20.285156 -48.378906 17.835938 -47.539062 16.359375 -46 C 14.890625 -44.46875 14.335938 -42.8125 14.703125 -41.03125 C 15.078125 -39.257812 16.269531 -37.835938 18.28125 -36.765625 C 17.414062 -35.296875 15.957031 -34.222656 13.90625 -33.546875 C 11.863281 -32.878906 10.039062 -32.578125 8.4375 -32.640625 C 6.363281 -32.710938 4.4375 -33.285156 2.65625 -34.359375 C 0.882812 -35.429688 0 -37.101562 0 -39.375 C 0 -41.320312 0.632812 -42.960938 1.90625 -44.296875 C 3.175781 -45.640625 4.816406 -46.695312 6.828125 -47.46875 C 8.835938 -48.238281 11.015625 -48.820312 13.359375 -49.21875 C 15.703125 -49.625 17.925781 -49.894531 20.03125 -50.03125 C 22.144531 -50.164062 23.941406 -50.234375 25.421875 -50.234375 C 27.765625 -50.234375 30.359375 -50.03125 33.203125 -49.625 C 36.046875 -49.21875 38.753906 -48.476562 41.328125 -47.40625 C 43.910156 -46.34375 46.039062 -44.835938 47.71875 -42.890625 C 49.394531 -40.953125 50.234375 -38.441406 50.234375 -35.359375 L 50.234375 -8.03125 C 50.234375 -5.488281 50.75 -3.796875 51.78125 -2.953125 C 52.820312 -2.117188 54.007812 -1.703125 55.34375 -1.703125 L 55.34375 0 Z M 33.15625 -43.09375 C 33.15625 -41.21875 32.46875 -39.410156 31.09375 -37.671875 C 29.71875 -35.929688 28.359375 -34.425781 27.015625 -33.15625 C 24.941406 -31.28125 23.015625 -29.519531 21.234375 -27.875 C 19.460938 -26.238281 18.023438 -24.414062 16.921875 -22.40625 C 15.816406 -20.394531 15.234375 -17.878906 15.171875 -14.859375 C 15.097656 -11.710938 15.898438 -9.164062 17.578125 -7.21875 C 19.253906 -5.28125 21.332031 -4.3125 23.8125 -4.3125 C 26.21875 -4.3125 28.273438 -4.914062 29.984375 -6.125 C 31.691406 -7.332031 32.976562 -8.921875 33.84375 -10.890625 C 34.71875 -12.867188 35.15625 -14.960938 35.15625 -17.171875 L 35.15625 -33.15625 C 35.15625 -37.5 34.488281 -40.8125 33.15625 -43.09375 Z M 33.15625 -43.09375 "/></g></g><g style="fill:#1e1932;fill-opacity:1;"><g transform="translate(282.870836, 202.09892)"><path style="stroke:none" d="M 0 0 L 0 -1.703125 C 1.34375 -1.703125 2.515625 -2.117188 3.515625 -2.953125 C 4.515625 -3.796875 5.015625 -5.488281 5.015625 -8.03125 L 5.015625 -62.28125 C 5.015625 -64.820312 4.515625 -66.507812 3.515625 -67.34375 C 2.515625 -68.1875 1.34375 -68.609375 0 -68.609375 L 0 -70.3125 C 3.34375 -70.445312 6.859375 -71 10.546875 -71.96875 C 14.234375 -72.945312 17.414062 -73.96875 20.09375 -75.03125 L 20.09375 -8.03125 C 20.09375 -5.488281 20.609375 -3.796875 21.640625 -2.953125 C 22.679688 -2.117188 23.875 -1.703125 25.21875 -1.703125 L 25.21875 0 Z M 0 0 "/></g></g><g style="fill:#1e1932;fill-opacity:1;"><g transform="translate(213.770206, 243.45105)"><path style="stroke:none" d="M 0 -28.96875 C 0 -31.488281 0.578125 -33.550781 1.734375 -35.15625 C 2.890625 -36.769531 4.367188 -38.015625 6.171875 -38.890625 C 7.984375 -39.773438 9.890625 -40.382812 11.890625 -40.71875 C 13.898438 -41.050781 15.75 -41.21875 17.4375 -41.21875 C 18.457031 -41.21875 19.722656 -41.164062 21.234375 -41.0625 C 22.742188 -40.96875 24.3125 -40.753906 25.9375 -40.421875 C 27.570312 -40.085938 29.101562 -39.597656 30.53125 -38.953125 C 31.96875 -38.304688 33.125 -37.429688 34 -36.328125 C 34.882812 -35.234375 35.328125 -33.878906 35.328125 -32.265625 C 35.328125 -31.015625 35.03125 -29.984375 34.4375 -29.171875 C 33.851562 -28.367188 33.109375 -27.78125 32.203125 -27.40625 C 31.304688 -27.039062 30.382812 -26.835938 29.4375 -26.796875 C 28.695312 -26.796875 27.863281 -26.898438 26.9375 -27.109375 C 26.019531 -27.328125 25.15625 -27.691406 24.34375 -28.203125 C 23.539062 -28.710938 22.925781 -29.363281 22.5 -30.15625 C 23.519531 -30.539062 24.210938 -31.144531 24.578125 -31.96875 C 24.953125 -32.800781 25.160156 -33.648438 25.203125 -34.515625 C 25.242188 -35.410156 24.929688 -36.300781 24.265625 -37.1875 C 23.597656 -38.070312 22.65625 -38.796875 21.4375 -39.359375 C 20.21875 -39.929688 18.804688 -40.21875 17.203125 -40.21875 C 15.429688 -40.21875 13.859375 -39.875 12.484375 -39.1875 C 11.109375 -38.5 10.046875 -37.613281 9.296875 -36.53125 C 8.554688 -35.457031 8.210938 -34.300781 8.265625 -33.0625 C 8.328125 -31.832031 8.894531 -30.664062 9.96875 -29.5625 C 11.050781 -28.46875 12.734375 -27.566406 15.015625 -26.859375 C 16.585938 -26.347656 18.296875 -25.835938 20.140625 -25.328125 C 21.984375 -24.816406 23.796875 -24.226562 25.578125 -23.5625 C 27.367188 -22.894531 29 -22.054688 30.46875 -21.046875 C 31.945312 -20.046875 33.125 -18.828125 34 -17.390625 C 34.882812 -15.960938 35.328125 -14.226562 35.328125 -12.1875 C 35.328125 -9.675781 34.75 -7.625 33.59375 -6.03125 C 32.4375 -4.445312 30.945312 -3.210938 29.125 -2.328125 C 27.300781 -1.441406 25.382812 -0.832031 23.375 -0.5 C 21.375 -0.164062 19.550781 0 17.90625 0 C 16.882812 0 15.617188 -0.046875 14.109375 -0.140625 C 12.597656 -0.242188 11.023438 -0.460938 9.390625 -0.796875 C 7.765625 -1.128906 6.234375 -1.617188 4.796875 -2.265625 C 3.367188 -2.910156 2.210938 -3.773438 1.328125 -4.859375 C 0.441406 -5.941406 0 -7.285156 0 -8.890625 C 0 -10.816406 0.613281 -12.210938 1.84375 -13.078125 C 3.082031 -13.941406 4.429688 -14.390625 5.890625 -14.421875 C 6.640625 -14.460938 7.472656 -14.363281 8.390625 -14.125 C 9.316406 -13.894531 10.191406 -13.535156 11.015625 -13.046875 C 11.835938 -12.554688 12.445312 -11.898438 12.84375 -11.078125 C 11.851562 -10.679688 11.160156 -10.0625 10.765625 -9.21875 C 10.378906 -8.375 10.164062 -7.519531 10.125 -6.65625 C 10.125 -5.75 10.445312 -4.851562 11.09375 -3.96875 C 11.75 -3.09375 12.679688 -2.367188 13.890625 -1.796875 C 15.109375 -1.222656 16.523438 -0.9375 18.140625 -0.9375 C 19.898438 -0.9375 21.46875 -1.28125 22.84375 -1.96875 C 24.21875 -2.65625 25.28125 -3.539062 26.03125 -4.625 C 26.78125 -5.707031 27.125 -6.863281 27.0625 -8.09375 C 27 -9.332031 26.425781 -10.507812 25.34375 -11.625 C 24.269531 -12.75 22.578125 -13.664062 20.265625 -14.375 C 18.691406 -14.882812 16.988281 -15.382812 15.15625 -15.875 C 13.332031 -16.363281 11.523438 -16.953125 9.734375 -17.640625 C 7.953125 -18.328125 6.328125 -19.160156 4.859375 -20.140625 C 3.390625 -21.117188 2.210938 -22.320312 1.328125 -23.75 C 0.441406 -25.1875 0 -26.925781 0 -28.96875 Z M 0 -28.96875 "/></g></g><g style="fill:#1e1932;fill-opacity:1;"><g transform="translate(248.745783, 243.45105)"><path style="stroke:none" d="M 2.9375 -8.484375 L 2.9375 -21.96875 C 2.9375 -23.457031 2.640625 -24.445312 2.046875 -24.9375 C 1.460938 -25.425781 0.78125 -25.671875 0 -25.671875 L 0 -26.671875 C 1.957031 -26.753906 4.015625 -27.078125 6.171875 -27.640625 C 8.335938 -28.210938 10.207031 -28.8125 11.78125 -29.4375 L 11.78125 -10.015625 C 11.78125 -7.816406 12.289062 -6.285156 13.3125 -5.421875 C 14.332031 -4.554688 15.617188 -4.25 17.171875 -4.5 C 18.722656 -4.757812 20.242188 -5.421875 21.734375 -6.484375 C 22.046875 -6.710938 22.359375 -6.941406 22.671875 -7.171875 C 22.984375 -7.410156 23.28125 -7.648438 23.5625 -7.890625 L 23.5625 -21.96875 C 23.5625 -23.457031 23.265625 -24.445312 22.671875 -24.9375 C 22.085938 -25.425781 21.398438 -25.671875 20.609375 -25.671875 L 20.609375 -26.671875 C 22.578125 -26.753906 24.640625 -27.078125 26.796875 -27.640625 C 28.953125 -28.210938 30.816406 -28.8125 32.390625 -29.4375 L 32.390625 -3.46875 C 32.390625 1.4375 30.867188 5.203125 27.828125 7.828125 C 24.785156 10.460938 20.394531 11.78125 14.65625 11.78125 C 13.757812 11.78125 12.726562 11.71875 11.5625 11.59375 C 10.40625 11.476562 9.257812 11.234375 8.125 10.859375 C 6.988281 10.492188 6.007812 9.992188 5.1875 9.359375 C 3.769531 8.265625 3.117188 6.875 3.234375 5.1875 C 3.316406 3.6875 3.914062 2.515625 5.03125 1.671875 C 6.15625 0.828125 7.421875 0.445312 8.828125 0.53125 C 9.617188 0.570312 10.382812 0.75 11.125 1.0625 C 11.875 1.375 12.484375 1.863281 12.953125 2.53125 C 12.171875 2.96875 11.570312 3.644531 11.15625 4.5625 C 10.75 5.488281 10.601562 6.429688 10.71875 7.390625 C 10.832031 8.347656 11.265625 9.144531 12.015625 9.78125 C 12.679688 10.289062 13.472656 10.601562 14.390625 10.71875 C 15.316406 10.832031 16.253906 10.773438 17.203125 10.546875 C 18.890625 10.148438 20.179688 9.378906 21.078125 8.234375 C 21.984375 7.097656 22.625 5.734375 23 4.140625 C 23.375 2.554688 23.5625 0.941406 23.5625 -0.703125 L 23.5625 -6.65625 C 22.382812 -5.789062 21.234375 -4.960938 20.109375 -4.171875 C 18.992188 -3.390625 17.882812 -2.707031 16.78125 -2.125 C 15.5625 -1.488281 14.351562 -0.972656 13.15625 -0.578125 C 11.957031 -0.191406 10.753906 0 9.546875 0 C 7.617188 0 6.191406 -0.359375 5.265625 -1.078125 C 4.347656 -1.804688 3.726562 -2.816406 3.40625 -4.109375 C 3.09375 -5.410156 2.9375 -6.867188 2.9375 -8.484375 Z M 2.9375 -8.484375 "/></g></g><g style="fill:#1e1932;fill-opacity:1;"><g transform="translate(281.130535, 243.45105)"><path style="stroke:none" d="M 8.890625 0 L 0 0 L 0 -1 C 0.78125 -1 1.472656 -1.242188 2.078125 -1.734375 C 2.691406 -2.222656 3 -3.21875 3 -4.71875 L 3 -21.96875 C 3 -23.457031 2.691406 -24.445312 2.078125 -24.9375 C 1.472656 -25.425781 0.78125 -25.671875 0 -25.671875 L 0 -26.671875 C 1.957031 -26.753906 4.023438 -27.078125 6.203125 -27.640625 C 8.390625 -28.210938 10.269531 -28.8125 11.84375 -29.4375 L 11.84375 -22.796875 C 13.019531 -23.691406 14.175781 -24.519531 15.3125 -25.28125 C 16.445312 -26.050781 17.566406 -26.734375 18.671875 -27.328125 C 19.890625 -27.992188 21.097656 -28.507812 22.296875 -28.875 C 23.492188 -29.25 24.679688 -29.4375 25.859375 -29.4375 C 27.773438 -29.4375 29.203125 -29.070312 30.140625 -28.34375 C 31.085938 -27.625 31.707031 -26.625 32 -25.34375 C 32.300781 -24.070312 32.453125 -22.613281 32.453125 -20.96875 L 32.453125 -4.71875 C 32.453125 -3.21875 32.753906 -2.222656 33.359375 -1.734375 C 33.972656 -1.242188 34.648438 -1 35.390625 -1 L 35.390625 0 L 26.5625 0 C 25.8125 0 25.128906 -0.253906 24.515625 -0.765625 C 23.910156 -1.273438 23.609375 -2.253906 23.609375 -3.703125 L 23.609375 -19.4375 C 23.609375 -21.675781 23.097656 -23.21875 22.078125 -24.0625 C 21.054688 -24.90625 19.789062 -25.207031 18.28125 -24.96875 C 16.769531 -24.726562 15.25 -24.0625 13.71875 -22.96875 C 13.40625 -22.726562 13.09375 -22.5 12.78125 -22.28125 C 12.46875 -22.070312 12.15625 -21.847656 11.84375 -21.609375 L 11.84375 -3.703125 C 11.84375 -2.253906 11.546875 -1.273438 10.953125 -0.765625 C 10.359375 -0.253906 9.671875 0 8.890625 0 Z M 8.890625 0 "/></g></g><g style="fill:#1e1932;fill-opacity:1;"><g transform="translate(315.046238, 243.45105)"><path style="stroke:none" d="M 29.390625 -20.546875 C 29.390625 -18.660156 28.738281 -17.226562 27.4375 -16.25 C 26.144531 -15.269531 24.675781 -14.738281 23.03125 -14.65625 C 21.5 -14.625 20.148438 -15.03125 18.984375 -15.875 C 17.828125 -16.71875 17.191406 -17.941406 17.078125 -19.546875 C 18.253906 -19.546875 19.144531 -19.976562 19.75 -20.84375 C 20.363281 -21.707031 20.671875 -22.671875 20.671875 -23.734375 C 20.710938 -25.148438 20.4375 -26.226562 19.84375 -26.96875 C 19.257812 -27.71875 18.503906 -28.171875 17.578125 -28.328125 C 16.648438 -28.484375 15.6875 -28.394531 14.6875 -28.0625 C 13.6875 -27.726562 12.773438 -27.207031 11.953125 -26.5 C 10.816406 -25.476562 9.941406 -24.238281 9.328125 -22.78125 C 8.722656 -21.332031 8.398438 -19.800781 8.359375 -18.1875 C 8.316406 -16.582031 8.550781 -15.054688 9.0625 -13.609375 C 9.96875 -11.210938 11.476562 -9.414062 13.59375 -8.21875 C 15.71875 -7.019531 17.976562 -6.441406 20.375 -6.484375 C 21.90625 -6.515625 23.414062 -6.753906 24.90625 -7.203125 C 26.40625 -7.660156 27.722656 -8.28125 28.859375 -9.0625 L 29.390625 -8.59375 C 28.640625 -6.75 27.523438 -5.1875 26.046875 -3.90625 C 24.578125 -2.632812 22.910156 -1.664062 21.046875 -1 C 19.179688 -0.332031 17.269531 0 15.3125 0 C 12.488281 0 9.914062 -0.625 7.59375 -1.875 C 5.28125 -3.132812 3.425781 -4.875 2.03125 -7.09375 C 0.632812 -9.3125 -0.0625 -11.832031 -0.0625 -14.65625 C -0.0625 -17.6875 0.703125 -20.300781 2.234375 -22.5 C 3.765625 -24.695312 5.773438 -26.398438 8.265625 -27.609375 C 10.765625 -28.828125 13.445312 -29.4375 16.3125 -29.4375 C 17.570312 -29.4375 18.957031 -29.300781 20.46875 -29.03125 C 21.976562 -28.757812 23.410156 -28.289062 24.765625 -27.625 C 26.117188 -26.957031 27.226562 -26.050781 28.09375 -24.90625 C 28.957031 -23.769531 29.390625 -22.316406 29.390625 -20.546875 Z M 29.390625 -20.546875 "/></g></g><g style="fill:#1e1932;fill-opacity:1;"><g transform="translate(34.796692, 112.286879)"><path style="stroke:none" d="M 28.03125 2.234375 L 28.625 -3.296875 C 29.050781 -6.671875 29.457031 -9.835938 29.84375 -12.796875 C 30.238281 -15.753906 30.65625 -18.648438 31.09375 -21.484375 C 31.539062 -24.328125 32.054688 -27.238281 32.640625 -30.21875 C 33.222656 -33.195312 33.90625 -36.40625 34.6875 -39.84375 C 34.050781 -39.84375 33.179688 -39.753906 32.078125 -39.578125 C 30.984375 -39.398438 29.769531 -39.1875 28.4375 -38.9375 C 27.101562 -38.695312 25.769531 -38.425781 24.4375 -38.125 C 23.113281 -37.820312 21.898438 -37.546875 20.796875 -37.296875 C 19.703125 -37.046875 18.851562 -36.847656 18.25 -36.703125 C 16.9375 -36.347656 15.660156 -36.003906 14.421875 -35.671875 C 13.179688 -35.335938 11.921875 -34.972656 10.640625 -34.578125 C 10.035156 -34.398438 9.253906 -34.148438 8.296875 -33.828125 C 7.335938 -33.515625 6.441406 -33.160156 5.609375 -32.765625 C 4.773438 -32.378906 4.21875 -31.972656 3.9375 -31.546875 C 4.082031 -31.085938 4.347656 -30.734375 4.734375 -30.484375 C 5.117188 -30.234375 5.492188 -29.96875 5.859375 -29.6875 L 12.078125 -25.171875 C 14.953125 -23.003906 17.476562 -20.613281 19.65625 -18 C 21.84375 -15.394531 23.59375 -12.410156 24.90625 -9.046875 C 25.789062 -6.847656 26.390625 -5.09375 26.703125 -3.78125 C 27.023438 -2.46875 27.25 -1.382812 27.375 -0.53125 C 27.5 0.320312 27.6875 1.15625 27.9375 1.96875 Z M 2.125 -31.921875 C 2.125 -32.347656 2.300781 -32.742188 2.65625 -33.109375 C 3.007812 -33.484375 3.40625 -33.820312 3.84375 -34.125 C 4.289062 -34.425781 4.660156 -34.664062 4.953125 -34.84375 L 8.890625 -36.5 C 13.003906 -37.914062 17.195312 -39.101562 21.46875 -40.0625 C 25.738281 -41.019531 30.019531 -41.726562 34.3125 -42.1875 C 34.882812 -42.257812 35.234375 -42.359375 35.359375 -42.484375 C 35.484375 -42.609375 35.570312 -42.734375 35.625 -42.859375 C 35.675781 -42.984375 35.84375 -43.046875 36.125 -43.046875 C 36.625 -43.046875 36.890625 -43.007812 36.921875 -42.9375 C 36.953125 -42.863281 36.992188 -42.78125 37.046875 -42.6875 C 37.109375 -42.601562 37.382812 -42.546875 37.875 -42.515625 C 38.019531 -42.515625 38.160156 -42.515625 38.296875 -42.515625 C 38.441406 -42.515625 38.585938 -42.515625 38.734375 -42.515625 C 39.296875 -42.515625 39.914062 -42.519531 40.59375 -42.53125 C 41.269531 -42.550781 41.910156 -42.5625 42.515625 -42.5625 C 42.691406 -42.5625 42.859375 -42.5625 43.015625 -42.5625 C 43.171875 -42.5625 43.320312 -42.5625 43.46875 -42.5625 C 43.820312 -42.53125 44.503906 -42.457031 45.515625 -42.34375 C 46.523438 -42.238281 47.722656 -42.097656 49.109375 -41.921875 C 50.492188 -41.742188 51.910156 -41.539062 53.359375 -41.3125 C 54.816406 -41.082031 56.175781 -40.820312 57.4375 -40.53125 C 58.695312 -40.25 59.710938 -39.945312 60.484375 -39.625 C 61.265625 -39.3125 61.65625 -38.960938 61.65625 -38.578125 C 61.65625 -37.972656 61.460938 -37.671875 61.078125 -37.671875 C 60.828125 -37.671875 60.515625 -37.722656 60.140625 -37.828125 C 59.773438 -37.929688 59.304688 -38.054688 58.734375 -38.203125 C 57.671875 -38.453125 56.421875 -38.707031 54.984375 -38.96875 C 53.546875 -39.238281 52.046875 -39.476562 50.484375 -39.6875 C 48.929688 -39.90625 47.441406 -40.070312 46.015625 -40.1875 C 44.597656 -40.3125 43.394531 -40.375 42.40625 -40.375 C 41.476562 -40.375 40.648438 -40.335938 39.921875 -40.265625 C 39.203125 -40.203125 38.34375 -40.171875 37.34375 -40.171875 C 37.3125 -40.066406 37.210938 -39.640625 37.046875 -38.890625 C 36.890625 -38.148438 36.710938 -37.300781 36.515625 -36.34375 C 36.328125 -35.382812 36.160156 -34.503906 36.015625 -33.703125 C 35.878906 -32.898438 35.789062 -32.378906 35.75 -32.140625 L 32.875 -15.90625 C 32.414062 -12.957031 32.015625 -10.109375 31.671875 -7.359375 C 31.335938 -4.617188 30.976562 -1.828125 30.59375 1.015625 C 30.488281 1.796875 30.40625 2.519531 30.34375 3.1875 C 30.289062 3.863281 30.210938 4.609375 30.109375 5.421875 L 28.359375 22.71875 C 28.316406 23.070312 28.28125 23.515625 28.25 24.046875 C 28.21875 24.578125 28.117188 25.054688 27.953125 25.484375 C 27.796875 25.910156 27.523438 26.125 27.140625 26.125 C 26.921875 26.125 26.757812 26.0625 26.65625 25.9375 C 26.550781 25.8125 26.410156 25.695312 26.234375 25.59375 L 27.140625 10.484375 C 27.140625 8.953125 27.039062 7.316406 26.84375 5.578125 C 26.644531 3.847656 26.375 2.117188 26.03125 0.390625 C 25.695312 -1.328125 25.335938 -2.875 24.953125 -4.25 C 24.421875 -6.238281 23.800781 -8.003906 23.09375 -9.546875 C 22.382812 -11.085938 21.578125 -12.550781 20.671875 -13.9375 C 19.765625 -15.320312 18.742188 -16.722656 17.609375 -18.140625 C 16.867188 -19.097656 15.960938 -20.03125 14.890625 -20.9375 C 13.828125 -21.84375 12.726562 -22.71875 11.59375 -23.5625 C 10.457031 -24.414062 9.429688 -25.179688 8.515625 -25.859375 L 3.671875 -29.3125 C 3.273438 -29.59375 2.914062 -29.925781 2.59375 -30.3125 C 2.28125 -30.707031 2.125 -31.242188 2.125 -31.921875 Z M 2.125 -31.921875 "/></g></g><g style="fill:#1e1932;fill-opacity:1;"><g transform="translate(69.903932, 112.286879)"><path style="stroke:none" d="M -0.3125 -4.421875 L 0 -10.421875 C 0.03125 -10.816406 0.0625 -11.285156 0.09375 -11.828125 C 0.132812 -12.378906 0.175781 -12.851562 0.21875 -13.25 C 0.28125 -15.019531 0.5 -16.773438 0.875 -18.515625 C 1.25 -20.253906 1.648438 -21.972656 2.078125 -23.671875 C 2.328125 -24.378906 2.519531 -24.847656 2.65625 -25.078125 C 2.800781 -25.316406 3 -25.4375 3.25 -25.4375 C 3.351562 -25.4375 3.472656 -25.425781 3.609375 -25.40625 C 3.753906 -25.382812 3.914062 -25.359375 4.09375 -25.328125 C 4.269531 -24.503906 4.234375 -23.535156 3.984375 -22.421875 C 3.742188 -21.304688 3.550781 -20.285156 3.40625 -19.359375 C 3.007812 -16.910156 2.6875 -14.210938 2.4375 -11.265625 C 2.195312 -8.328125 2.078125 -5.53125 2.078125 -2.875 L 2.234375 3.078125 L 2.65625 2.078125 C 3.15625 0.660156 3.570312 -0.535156 3.90625 -1.515625 C 4.25 -2.492188 4.640625 -3.460938 5.078125 -4.421875 C 5.523438 -5.378906 6.117188 -6.546875 6.859375 -7.921875 C 7.253906 -8.628906 7.632812 -9.234375 8 -9.734375 C 8.375 -10.234375 8.953125 -10.484375 9.734375 -10.484375 C 10.128906 -10.484375 10.40625 -10.195312 10.5625 -9.625 C 10.71875 -9.0625 10.8125 -8.441406 10.84375 -7.765625 C 10.882812 -7.085938 10.90625 -6.59375 10.90625 -6.28125 C 10.90625 -5.28125 10.929688 -4.4375 10.984375 -3.75 C 11.035156 -3.0625 11.238281 -2.378906 11.59375 -1.703125 C 12.414062 -1.878906 13.109375 -2.398438 13.671875 -3.265625 C 14.242188 -4.140625 14.757812 -4.894531 15.21875 -5.53125 C 15.46875 -5.925781 15.695312 -6.316406 15.90625 -6.703125 C 16.125 -7.085938 16.335938 -7.492188 16.546875 -7.921875 C 16.867188 -8.492188 17.125 -8.882812 17.3125 -9.09375 C 17.507812 -9.3125 17.710938 -9.421875 17.921875 -9.421875 C 18.035156 -9.421875 18.234375 -9.382812 18.515625 -9.3125 C 18.691406 -8.675781 18.65625 -8.160156 18.40625 -7.765625 C 18.15625 -7.378906 17.890625 -6.921875 17.609375 -6.390625 C 17.359375 -5.921875 17.019531 -5.320312 16.59375 -4.59375 C 16.164062 -3.875 15.6875 -3.164062 15.15625 -2.46875 C 14.625 -1.78125 14.054688 -1.195312 13.453125 -0.71875 C 12.859375 -0.238281 12.238281 0 11.59375 0 C 10.425781 0 9.664062 -1.046875 9.3125 -3.140625 C 9.207031 -3.742188 9.132812 -4.550781 9.09375 -5.5625 C 9.0625 -6.570312 9.046875 -7.445312 9.046875 -8.1875 C 8.796875 -8.007812 8.492188 -7.601562 8.140625 -6.96875 C 7.785156 -6.332031 7.429688 -5.613281 7.078125 -4.8125 C 6.722656 -4.019531 6.394531 -3.25 6.09375 -2.5 C 5.789062 -1.757812 5.550781 -1.191406 5.375 -0.796875 C 4.945312 0.296875 4.597656 1.394531 4.328125 2.5 C 4.066406 3.601562 3.773438 4.648438 3.453125 5.640625 C 3.273438 6.203125 3.070312 6.5625 2.84375 6.71875 C 2.613281 6.882812 2.25 6.96875 1.75 6.96875 C 1.363281 6.96875 1.046875 6.628906 0.796875 5.953125 C 0.546875 5.285156 0.34375 4.445312 0.1875 3.4375 C 0.03125 2.425781 -0.0820312 1.378906 -0.15625 0.296875 C -0.226562 -0.785156 -0.269531 -1.757812 -0.28125 -2.625 C -0.300781 -3.5 -0.3125 -4.097656 -0.3125 -4.421875 Z M -0.3125 -4.421875 "/></g></g><g style="fill:#1e1932;fill-opacity:1;"><g transform="translate(86.127757, 112.286879)"><path style="stroke:none" d="M 2.453125 -9.625 C 3.117188 -9.976562 3.859375 -10.46875 4.671875 -11.09375 C 5.492188 -11.71875 5.941406 -12.453125 6.015625 -13.296875 C 5.546875 -13.222656 5.054688 -12.972656 4.546875 -12.546875 C 4.035156 -12.128906 3.59375 -11.65625 3.21875 -11.125 C 2.84375 -10.59375 2.585938 -10.09375 2.453125 -9.625 Z M 0.046875 -8.359375 C 0.046875 -9.242188 0.335938 -10.195312 0.921875 -11.21875 C 1.515625 -12.25 2.242188 -13.128906 3.109375 -13.859375 C 3.984375 -14.585938 4.84375 -14.953125 5.6875 -14.953125 C 6.863281 -14.953125 7.476562 -14.507812 7.53125 -13.625 C 7.582031 -12.738281 7.203125 -11.78125 6.390625 -10.75 C 5.960938 -10.289062 5.320312 -9.757812 4.46875 -9.15625 C 3.613281 -8.550781 2.78125 -8.210938 1.96875 -8.140625 C 1.96875 -7.566406 1.984375 -7.054688 2.015625 -6.609375 C 2.054688 -6.171875 2.304688 -5.722656 2.765625 -5.265625 C 3.222656 -4.804688 3.804688 -4.578125 4.515625 -4.578125 C 5.441406 -4.578125 6.398438 -4.867188 7.390625 -5.453125 C 8.390625 -6.035156 9.15625 -6.523438 9.6875 -6.921875 C 9.894531 -7.097656 10.0625 -7.238281 10.1875 -7.34375 C 10.3125 -7.445312 10.460938 -7.570312 10.640625 -7.71875 C 11.390625 -8.28125 11.859375 -8.691406 12.046875 -8.953125 C 12.242188 -9.222656 12.410156 -9.398438 12.546875 -9.484375 C 12.691406 -9.578125 13.03125 -9.625 13.5625 -9.625 C 13.632812 -9.238281 13.660156 -8.972656 13.640625 -8.828125 C 13.628906 -8.691406 13.5 -8.476562 13.25 -8.1875 C 12.613281 -7.550781 11.804688 -6.820312 10.828125 -6 C 9.847656 -5.1875 8.800781 -4.476562 7.6875 -3.875 C 6.570312 -3.28125 5.460938 -2.984375 4.359375 -2.984375 C 3.796875 -2.984375 3.253906 -3.078125 2.734375 -3.265625 C 2.222656 -3.460938 1.738281 -3.789062 1.28125 -4.25 C 0.632812 -4.894531 0.265625 -5.550781 0.171875 -6.21875 C 0.0859375 -6.894531 0.046875 -7.609375 0.046875 -8.359375 Z M 0.046875 -8.359375 "/></g></g></g></svg>